<?xml version="1.0" encoding="utf-8"?>
<!-- Generator: Adobe Illustrator 18.0.0, SVG Export Plug-In . SVG Version: 6.00 Build 0)  -->
<!DOCTYPE svg PUBLIC "-//W3C//DTD SVG 1.1//EN" "http://www.w3.org/Graphics/SVG/1.1/DTD/svg11.dtd">
<svg version="1.1" id="Camada_1" xmlns="http://www.w3.org/2000/svg" xmlns:xlink="http://www.w3.org/1999/xlink" x="0px" y="0px"
	 viewBox="0 0 38.8 38.8" enable-background="new 0 0 38.8 38.8" xml:space="preserve">
<g id="Camada_1">
	<g>
		<path fill-rule="evenodd" clip-rule="evenodd" fill="#F6A12A" d="M19.4,0.4c10.5,0,19,8.5,19,19c0,10.5-8.5,19-19,19
			s-19-8.5-19-19C0.4,8.9,8.9,0.4,19.4,0.4z"/>
		<g>
			<path fill="#FFFFFF" d="M20,18.3c0,1.7-0.4,3.1-1.3,4.1c-0.9,1-2.1,1.5-3.7,1.5c-1.6,0-2.9-0.5-3.7-1.4c-0.9-1-1.3-2.3-1.3-4.1
				s0.4-3.1,1.3-4.1c0.9-0.9,2.1-1.4,3.7-1.4c1.6,0,2.8,0.5,3.7,1.4C19.5,15.2,20,16.6,20,18.3z M11.8,18.3c0,1.3,0.3,2.3,0.8,3
				c0.5,0.7,1.3,1,2.4,1c1,0,1.8-0.3,2.4-1c0.5-0.7,0.8-1.7,0.8-3c0-1.3-0.3-2.3-0.8-3c-0.5-0.7-1.3-1-2.3-1c-1.1,0-1.8,0.3-2.4,1
				C12.1,16,11.8,17,11.8,18.3z"/>
			<path fill="#FFFFFF" d="M29.7,23.7h-2l-3.4-4.8l-1,0.8v4h-1.8V13h1.8v5.1c0.5-0.6,1-1.1,1.4-1.7l2.9-3.4h2
				c-1.9,2.2-3.2,3.8-4,4.7L29.7,23.7z"/>
		</g>
	</g>
</g>
</svg>
