<?xml version="1.0" encoding="utf-8"?>
<!-- Generator: Adobe Illustrator 18.0.0, SVG Export Plug-In . SVG Version: 6.00 Build 0)  -->
<!DOCTYPE svg PUBLIC "-//W3C//DTD SVG 1.1//EN" "http://www.w3.org/Graphics/SVG/1.1/DTD/svg11.dtd">
<svg version="1.1" id="Camada_1" xmlns="http://www.w3.org/2000/svg" xmlns:xlink="http://www.w3.org/1999/xlink" x="0px" y="0px"
	 viewBox="0 0 447.1 45.4" enable-background="new 0 0 447.1 45.4" xml:space="preserve">
<g id="Camada_1">
	<g>
		<g>
			<path fill="#B8B9B8" d="M427.6,44.9H19.2C8.8,44.9,0.3,36.4,0.3,26l0-6.7C0.3,8.9,8.8,0.4,19.2,0.4h408.4
				c10.4,0,18.9,8.5,18.9,18.9V26C446.5,36.4,438,44.9,427.6,44.9z"/>
		</g>
		<g>
			<path fill="#CAE8F6" d="M426.5,42.2H20.4C10,42.2,1.5,33.7,1.5,23.3v-2.9C1.5,10.1,10,1.5,20.4,1.5l406.1,0
				c10.4,0,18.9,8.5,18.9,18.9v2.9C445.4,33.7,436.9,42.2,426.5,42.2z"/>
		</g>
		<path fill="#005875" d="M31.3,37.5L31.3,37.5L31.3,37.5z"/>
		<path fill="#005875" d="M21.8,3.2c10.1,0,18.3,8.3,18.3,18.5c0,1.8-0.2,3.5-0.7,5.1l-5.9-3.8c0.1-0.5,0.1-0.9,0.1-1.4
			c0-6.5-5.2-11.8-11.7-11.8c-6.5,0-11.7,5.3-11.7,11.8s5.2,11.8,11.7,11.8c0.1,0,0.2,0,0.2,0c2.5,2.2,5.7,3.7,9.2,4.1
			c-2.8,1.7-6,2.7-9.5,2.7c-10.1,0-18.3-8.3-18.3-18.5C3.5,11.5,11.7,3.2,21.8,3.2z"/>
		<path fill="#005875" d="M18.6,21.8c0-1.4,0.2-2.8,0.6-4.1c1.7,6.1,7.3,10.5,13.8,10.5v-2.2c0-0.9,0.6-1.3,1.4-0.8l9.6,6.1
			c0.8,0.5,0.8,1.3,0,1.8l-9.6,6.1c-0.8,0.5-1.4,0.1-1.4-0.8v-2.2C25,36.4,18.6,29.9,18.6,21.8z"/>
		<g>
			<g>
				<path fill="#255775" stroke="#265674" stroke-miterlimit="10" d="M68.2,14.6h-5.1l-1.9,15.1h-1.1L62,14.6h-5.2l0.1-1h11.5
					L68.2,14.6z"/>
				<path fill="#255775" stroke="#265674" stroke-miterlimit="10" d="M73.2,27.6c-0.4,0.4-0.7,0.7-1.1,1c-0.4,0.3-0.7,0.5-1.1,0.7
					c-0.4,0.2-0.7,0.3-1.1,0.4c-0.4,0.1-0.8,0.1-1.2,0.1c-0.6,0-1.2-0.1-1.7-0.3s-0.9-0.5-1.2-0.9c-0.3-0.4-0.6-0.8-0.8-1.4
					c-0.2-0.5-0.3-1.2-0.3-1.8c0-0.6,0.1-1.1,0.2-1.7c0.1-0.6,0.3-1.1,0.5-1.7c0.2-0.5,0.5-1,0.8-1.5c0.3-0.5,0.7-0.9,1.1-1.2
					s0.9-0.6,1.4-0.8c0.5-0.2,1.1-0.3,1.7-0.3c0.6,0,1,0.1,1.4,0.2c0.4,0.2,0.7,0.3,0.9,0.6c0.2,0.2,0.4,0.5,0.5,0.7
					c0.1,0.3,0.2,0.5,0.2,0.8c0,0.3,0,0.6-0.1,0.9s-0.2,0.5-0.4,0.8c-0.2,0.2-0.5,0.5-0.9,0.7s-0.8,0.4-1.4,0.6
					c-0.6,0.2-1.2,0.4-2,0.5c-0.8,0.2-1.7,0.3-2.8,0.4c0,0.2,0,0.3,0,0.5s0,0.3,0,0.5c0,1.1,0.3,2,0.8,2.6c0.5,0.6,1.3,1,2.3,1
					c0.4,0,0.8,0,1.1-0.1c0.3-0.1,0.6-0.2,0.9-0.3c0.3-0.1,0.5-0.3,0.7-0.4c0.2-0.2,0.4-0.3,0.5-0.4s0.3-0.2,0.4-0.3
					c0.1-0.1,0.2-0.1,0.3-0.1c0.1,0,0.2,0,0.2,0.1L73.2,27.6z M70.4,19.1c-0.6,0-1.1,0.1-1.6,0.4s-0.9,0.6-1.3,1
					c-0.4,0.4-0.7,0.9-0.9,1.5c-0.3,0.6-0.4,1.1-0.6,1.8c1-0.1,1.8-0.2,2.5-0.4c0.7-0.1,1.3-0.3,1.8-0.4c0.5-0.2,0.9-0.3,1.2-0.5
					c0.3-0.2,0.5-0.4,0.7-0.6s0.3-0.4,0.3-0.6s0.1-0.4,0.1-0.6c0-0.2,0-0.3-0.1-0.5c-0.1-0.2-0.2-0.4-0.4-0.5s-0.4-0.3-0.7-0.4
					S70.8,19.1,70.4,19.1z"/>
				<path fill="#255775" stroke="#265674" stroke-miterlimit="10" d="M76.2,22.1c0.3-0.6,0.6-1.1,1-1.6c0.4-0.5,0.8-0.9,1.2-1.2
					c0.4-0.3,0.8-0.6,1.3-0.7s0.9-0.3,1.3-0.3c0.5,0,0.9,0.1,1.2,0.3c0.3,0.2,0.6,0.5,0.8,0.8s0.3,0.8,0.4,1.3
					c0.1,0.5,0.1,1.1,0,1.8l-0.8,7.2h-1.1l0.8-7.2c0.1-1.1,0.1-1.9-0.2-2.5c-0.3-0.6-0.8-0.9-1.5-0.9c-0.4,0-0.8,0.1-1.3,0.3
					c-0.4,0.2-0.8,0.5-1.2,0.9c-0.4,0.4-0.8,0.9-1.1,1.4c-0.4,0.6-0.7,1.2-0.9,1.9l-0.7,6h-1.1l1.3-11.3h0.5c0.3,0,0.4,0.1,0.4,0.4
					L76.2,22.1z"/>
				<path fill="#255775" stroke="#265674" stroke-miterlimit="10" d="M86.8,21.8c0.3-0.6,0.6-1.1,1-1.5c0.4-0.4,0.8-0.8,1.2-1.1
					c0.4-0.3,0.8-0.5,1.2-0.7c0.4-0.2,0.9-0.2,1.3-0.2c0.5,0,0.9,0.1,1.3,0.3c0.3,0.2,0.6,0.5,0.8,0.8s0.3,0.8,0.4,1.3
					c0.1,0.5,0.1,1.1,0,1.8l-0.8,7.2h-1.1l0.8-7.2c0.1-1.1,0.1-1.9-0.2-2.5s-0.8-0.9-1.5-0.9c-0.4,0-0.8,0.1-1.2,0.3
					c-0.4,0.2-0.8,0.5-1.2,0.9s-0.8,0.9-1.1,1.4c-0.4,0.5-0.7,1.2-0.9,1.8l-0.7,6.1h-1.1l2-16.5h1.1L86.8,21.8z"/>
				<path fill="#255775" stroke="#265674" stroke-miterlimit="10" d="M102.7,25.8c-0.3,0.6-0.6,1.2-0.9,1.7
					c-0.3,0.5-0.7,0.9-1.1,1.3c-0.4,0.4-0.8,0.6-1.2,0.8s-0.9,0.3-1.3,0.3c-0.5,0-0.9-0.1-1.2-0.3c-0.4-0.2-0.7-0.4-0.9-0.8
					c-0.2-0.3-0.4-0.8-0.5-1.2c-0.1-0.5-0.2-1-0.2-1.6c0-0.7,0.1-1.3,0.3-1.9c0.2-0.6,0.4-1.2,0.7-1.8c0.3-0.6,0.7-1.1,1.1-1.6
					s0.9-0.9,1.4-1.2s1.1-0.6,1.6-0.8c0.6-0.2,1.2-0.3,1.8-0.3c0.4,0,0.9,0,1.3,0.1c0.4,0.1,0.8,0.2,1.2,0.4l-1.3,10.9h-0.5
					c-0.2,0-0.3,0-0.3-0.1c-0.1-0.1-0.1-0.2-0.1-0.3L102.7,25.8z M103.4,19.3c-0.2-0.1-0.5-0.1-0.7-0.2s-0.5-0.1-0.7-0.1
					c-0.8,0-1.5,0.2-2.2,0.6c-0.7,0.4-1.3,0.9-1.8,1.5c-0.5,0.6-0.9,1.3-1.2,2.1s-0.5,1.6-0.5,2.5c0,1,0.2,1.8,0.5,2.4
					c0.3,0.6,0.9,0.8,1.6,0.8c0.4,0,0.9-0.1,1.3-0.4c0.4-0.2,0.8-0.6,1.2-1c0.4-0.4,0.7-1,1.1-1.6c0.3-0.6,0.6-1.3,0.9-2L103.4,19.3
					z"/>
				<path fill="#255775" stroke="#265674" stroke-miterlimit="10" d="M117,19.8c-0.1,0.1-0.1,0.2-0.2,0.2c-0.1,0-0.2,0-0.3-0.1
					c-0.1-0.1-0.3-0.2-0.4-0.3c-0.2-0.1-0.4-0.2-0.7-0.3c-0.3-0.1-0.6-0.1-1-0.1c-0.4,0-0.7,0.1-1.1,0.2c-0.3,0.1-0.6,0.3-0.9,0.5
					c-0.3,0.2-0.5,0.5-0.6,0.7c-0.1,0.3-0.2,0.6-0.2,0.9c0,0.3,0.1,0.6,0.2,0.8c0.1,0.2,0.3,0.4,0.6,0.5c0.2,0.2,0.5,0.3,0.8,0.4
					c0.3,0.1,0.6,0.2,0.9,0.3c0.3,0.1,0.6,0.2,0.9,0.4c0.3,0.1,0.6,0.3,0.8,0.5c0.2,0.2,0.4,0.4,0.6,0.7c0.1,0.3,0.2,0.6,0.2,1
					c0,0.5-0.1,1-0.3,1.4c-0.2,0.5-0.5,0.9-0.8,1.2c-0.4,0.4-0.8,0.6-1.3,0.8s-1.1,0.3-1.7,0.3c-0.7,0-1.3-0.1-1.8-0.4
					c-0.5-0.3-0.9-0.6-1.3-1l0.3-0.4c0.1-0.1,0.2-0.2,0.3-0.2c0.1,0,0.2,0.1,0.3,0.2c0.1,0.1,0.3,0.3,0.5,0.4
					c0.2,0.1,0.4,0.3,0.8,0.4c0.3,0.1,0.7,0.2,1.2,0.2c0.5,0,0.9-0.1,1.2-0.2s0.7-0.3,0.9-0.6c0.3-0.3,0.5-0.6,0.6-0.9
					c0.1-0.3,0.2-0.7,0.2-1.1c0-0.3-0.1-0.6-0.2-0.8c-0.1-0.2-0.3-0.4-0.6-0.6c-0.2-0.2-0.5-0.3-0.8-0.4s-0.6-0.2-0.9-0.3
					c-0.3-0.1-0.6-0.2-0.9-0.4c-0.3-0.1-0.6-0.3-0.8-0.5c-0.2-0.2-0.4-0.4-0.6-0.7s-0.2-0.6-0.2-1c0-0.4,0.1-0.9,0.3-1.3
					c0.2-0.4,0.5-0.8,0.8-1.1c0.3-0.3,0.7-0.6,1.2-0.7c0.5-0.2,1-0.3,1.5-0.3c0.6,0,1.2,0.1,1.6,0.3c0.5,0.2,0.9,0.5,1.2,0.9
					L117,19.8z"/>
				<path fill="#255775" stroke="#265674" stroke-miterlimit="10" d="M126.2,27.6c-0.4,0.4-0.7,0.7-1.1,1c-0.4,0.3-0.7,0.5-1.1,0.7
					c-0.4,0.2-0.7,0.3-1.1,0.4c-0.4,0.1-0.8,0.1-1.2,0.1c-0.6,0-1.2-0.1-1.7-0.3s-0.9-0.5-1.2-0.9c-0.3-0.4-0.6-0.8-0.8-1.4
					c-0.2-0.5-0.3-1.2-0.3-1.8c0-0.6,0.1-1.1,0.2-1.7c0.1-0.6,0.3-1.1,0.5-1.7c0.2-0.5,0.5-1,0.8-1.5c0.3-0.5,0.7-0.9,1.1-1.2
					s0.9-0.6,1.4-0.8c0.5-0.2,1.1-0.3,1.7-0.3c0.6,0,1,0.1,1.4,0.2c0.4,0.2,0.7,0.3,0.9,0.6c0.2,0.2,0.4,0.5,0.5,0.7
					c0.1,0.3,0.2,0.5,0.2,0.8c0,0.3,0,0.6-0.1,0.9s-0.2,0.5-0.4,0.8c-0.2,0.2-0.5,0.5-0.9,0.7s-0.8,0.4-1.4,0.6
					c-0.6,0.2-1.2,0.4-2,0.5c-0.8,0.2-1.7,0.3-2.8,0.4c0,0.2,0,0.3,0,0.5s0,0.3,0,0.5c0,1.1,0.3,2,0.8,2.6c0.5,0.6,1.3,1,2.3,1
					c0.4,0,0.8,0,1.1-0.1c0.3-0.1,0.6-0.2,0.9-0.3c0.3-0.1,0.5-0.3,0.7-0.4c0.2-0.2,0.4-0.3,0.5-0.4s0.3-0.2,0.4-0.3
					c0.1-0.1,0.2-0.1,0.3-0.1c0.1,0,0.2,0,0.2,0.1L126.2,27.6z M123.4,19.1c-0.6,0-1.1,0.1-1.6,0.4s-0.9,0.6-1.3,1
					c-0.4,0.4-0.7,0.9-0.9,1.5c-0.3,0.6-0.4,1.1-0.6,1.8c1-0.1,1.8-0.2,2.5-0.4c0.7-0.1,1.3-0.3,1.8-0.4c0.5-0.2,0.9-0.3,1.2-0.5
					c0.3-0.2,0.5-0.4,0.7-0.6s0.3-0.4,0.3-0.6s0.1-0.4,0.1-0.6c0-0.2,0-0.3-0.1-0.5c-0.1-0.2-0.2-0.4-0.4-0.5s-0.4-0.3-0.7-0.4
					S123.8,19.1,123.4,19.1z"/>
				<path fill="#255775" stroke="#265674" stroke-miterlimit="10" d="M136.9,18.4l-1.4,11.3H135c-0.1,0-0.2,0-0.3-0.1
					s-0.1-0.2-0.1-0.3l0.3-3.2c-0.3,0.6-0.6,1.1-1,1.6c-0.4,0.5-0.8,0.9-1.2,1.2c-0.4,0.3-0.8,0.6-1.3,0.7c-0.4,0.2-0.9,0.3-1.3,0.3
					c-1,0-1.7-0.4-2.1-1.1c-0.4-0.7-0.5-1.8-0.4-3.1l0.8-7.2h1.1l-0.8,7.2c-0.1,1.1-0.1,1.9,0.2,2.5s0.8,0.9,1.5,0.9
					c0.4,0,0.8-0.1,1.3-0.3c0.4-0.2,0.8-0.5,1.2-0.9c0.4-0.4,0.8-0.9,1.1-1.4c0.4-0.6,0.7-1.2,0.9-1.9l0.7-6H136.9z"/>
				<path fill="#255775" stroke="#265674" stroke-miterlimit="10" d="M149.4,28.7c-0.4,0.3-0.7,0.5-1.1,0.7s-0.7,0.3-1,0.3
					s-0.7,0.1-1.1,0.1c-0.6,0-1.2-0.1-1.7-0.3c-0.5-0.2-0.9-0.5-1.2-0.9c-0.3-0.4-0.6-0.9-0.7-1.4c-0.2-0.6-0.2-1.1-0.2-1.8
					c0-0.6,0.1-1.2,0.2-1.8c0.1-0.6,0.3-1.1,0.5-1.7c0.2-0.5,0.5-1,0.8-1.5c0.3-0.4,0.7-0.8,1.1-1.2c0.4-0.3,0.9-0.6,1.4-0.8
					s1-0.3,1.6-0.3c0.4,0,0.7,0,1,0.1c0.3,0.1,0.6,0.2,0.8,0.3c0.2,0.1,0.5,0.3,0.7,0.5c0.2,0.2,0.4,0.4,0.6,0.6l-0.3,0.4
					c-0.1,0.1-0.1,0.1-0.2,0.1c-0.1,0-0.2-0.1-0.3-0.2c-0.1-0.1-0.3-0.3-0.4-0.4c-0.2-0.1-0.4-0.3-0.7-0.4c-0.3-0.1-0.7-0.2-1.1-0.2
					c-0.6,0-1.2,0.2-1.8,0.5s-1,0.8-1.4,1.4c-0.4,0.6-0.7,1.2-1,2c-0.2,0.8-0.3,1.5-0.3,2.3c0,0.5,0.1,1,0.2,1.4
					c0.1,0.4,0.3,0.8,0.5,1.2c0.2,0.3,0.6,0.6,0.9,0.8c0.4,0.2,0.8,0.3,1.3,0.3c0.4,0,0.8,0,1.1-0.1c0.3-0.1,0.6-0.2,0.8-0.3
					s0.5-0.3,0.6-0.4c0.2-0.2,0.3-0.3,0.5-0.4c0.1-0.1,0.3-0.2,0.4-0.3c0.1-0.1,0.2-0.1,0.3-0.1s0.2,0,0.2,0.1l0.2,0.3
					C150.2,28.1,149.8,28.5,149.4,28.7z"/>
				<path fill="#255775" stroke="#265674" stroke-miterlimit="10" d="M151.7,29.7l2-16.5h1.1l-2,16.5H151.7z"/>
				<path fill="#255775" stroke="#265674" stroke-miterlimit="10" d="M164.7,18.4l-1.4,11.3h-0.5c-0.1,0-0.2,0-0.3-0.1
					s-0.1-0.2-0.1-0.3l0.3-3.2c-0.3,0.6-0.6,1.1-1,1.6c-0.4,0.5-0.8,0.9-1.2,1.2c-0.4,0.3-0.8,0.6-1.3,0.7c-0.4,0.2-0.9,0.3-1.3,0.3
					c-1,0-1.7-0.4-2.1-1.1c-0.4-0.7-0.5-1.8-0.4-3.1l0.8-7.2h1.1l-0.8,7.2c-0.1,1.1-0.1,1.9,0.2,2.5s0.8,0.9,1.5,0.9
					c0.4,0,0.8-0.1,1.3-0.3c0.4-0.2,0.8-0.5,1.2-0.9c0.4-0.4,0.8-0.9,1.1-1.4c0.4-0.6,0.7-1.2,0.9-1.9l0.7-6H164.7z"/>
				<path fill="#255775" stroke="#265674" stroke-miterlimit="10" d="M167.7,22.2c0.3-0.6,0.6-1.1,1-1.6c0.4-0.5,0.7-0.9,1.1-1.3
					s0.8-0.6,1.3-0.8c0.4-0.2,0.9-0.3,1.3-0.3c0.5,0,0.9,0.1,1.3,0.3c0.4,0.2,0.7,0.5,0.9,0.8c0.2,0.3,0.4,0.8,0.6,1.3
					c0.1,0.5,0.2,1,0.2,1.6c0,0.6-0.1,1.2-0.2,1.8c-0.1,0.6-0.3,1.2-0.5,1.7c-0.2,0.6-0.5,1.1-0.8,1.6c-0.3,0.5-0.7,0.9-1.1,1.3
					c-0.4,0.4-0.9,0.7-1.3,0.9c-0.5,0.2-1,0.3-1.5,0.3c-0.6,0-1.2-0.1-1.7-0.4c-0.5-0.3-1-0.7-1.3-1.3l-0.2,1.2
					c0,0.1-0.1,0.2-0.1,0.3c0,0.1-0.1,0.1-0.3,0.1h-0.5l2-16.5h1.1L167.7,22.2z M167,27.4c0.2,0.3,0.4,0.6,0.6,0.8
					c0.2,0.2,0.4,0.4,0.7,0.5s0.5,0.2,0.7,0.3c0.3,0.1,0.5,0.1,0.8,0.1c0.5,0,0.9-0.1,1.3-0.3c0.4-0.2,0.8-0.5,1.1-0.8
					c0.3-0.3,0.6-0.7,0.9-1.2s0.5-0.9,0.7-1.4s0.3-1,0.4-1.5c0.1-0.5,0.1-1,0.1-1.5c0-1-0.2-1.8-0.6-2.4s-0.9-0.8-1.7-0.8
					c-0.4,0-0.9,0.1-1.3,0.4s-0.9,0.6-1.3,1c-0.4,0.4-0.8,1-1.1,1.6c-0.4,0.6-0.7,1.3-0.9,2.1L167,27.4z"/>
				<path fill="#255775" stroke="#265674" stroke-miterlimit="10" d="M184.6,27.6c-0.4,0.4-0.7,0.7-1.1,1c-0.4,0.3-0.7,0.5-1.1,0.7
					c-0.4,0.2-0.7,0.3-1.1,0.4c-0.4,0.1-0.8,0.1-1.2,0.1c-0.6,0-1.2-0.1-1.7-0.3s-0.9-0.5-1.2-0.9c-0.3-0.4-0.6-0.8-0.8-1.4
					c-0.2-0.5-0.3-1.2-0.3-1.8c0-0.6,0.1-1.1,0.2-1.7c0.1-0.6,0.3-1.1,0.5-1.7c0.2-0.5,0.5-1,0.8-1.5c0.3-0.5,0.7-0.9,1.1-1.2
					s0.9-0.6,1.4-0.8c0.5-0.2,1.1-0.3,1.7-0.3c0.6,0,1,0.1,1.4,0.2c0.4,0.2,0.7,0.3,0.9,0.6c0.2,0.2,0.4,0.5,0.5,0.7
					c0.1,0.3,0.2,0.5,0.2,0.8c0,0.3,0,0.6-0.1,0.9s-0.2,0.5-0.4,0.8c-0.2,0.2-0.5,0.5-0.9,0.7s-0.8,0.4-1.4,0.6
					c-0.6,0.2-1.2,0.4-2,0.5c-0.8,0.2-1.7,0.3-2.8,0.4c0,0.2,0,0.3,0,0.5s0,0.3,0,0.5c0,1.1,0.3,2,0.8,2.6c0.5,0.6,1.3,1,2.3,1
					c0.4,0,0.8,0,1.1-0.1c0.3-0.1,0.6-0.2,0.9-0.3c0.3-0.1,0.5-0.3,0.7-0.4c0.2-0.2,0.4-0.3,0.5-0.4s0.3-0.2,0.4-0.3
					c0.1-0.1,0.2-0.1,0.3-0.1c0.1,0,0.2,0,0.2,0.1L184.6,27.6z M181.8,19.1c-0.6,0-1.1,0.1-1.6,0.4s-0.9,0.6-1.3,1
					c-0.4,0.4-0.7,0.9-0.9,1.5c-0.3,0.6-0.4,1.1-0.6,1.8c1-0.1,1.8-0.2,2.5-0.4c0.7-0.1,1.3-0.3,1.8-0.4c0.5-0.2,0.9-0.3,1.2-0.5
					c0.3-0.2,0.5-0.4,0.7-0.6s0.3-0.4,0.3-0.6s0.1-0.4,0.1-0.6c0-0.2,0-0.3-0.1-0.5c-0.1-0.2-0.2-0.4-0.4-0.5s-0.4-0.3-0.7-0.4
					S182.2,19.1,181.8,19.1z"/>
				<path fill="#255775" stroke="#265674" stroke-miterlimit="10" d="M200.5,13.2l-2,16.5H198c-0.2,0-0.3,0-0.3-0.1
					c-0.1-0.1-0.1-0.2-0.1-0.3l0.4-3.5c-0.3,0.6-0.6,1.2-1,1.7c-0.4,0.5-0.8,0.9-1.2,1.3s-0.8,0.6-1.3,0.8s-0.9,0.3-1.4,0.3
					c-0.5,0-0.9-0.1-1.3-0.3s-0.7-0.5-0.9-0.8c-0.2-0.3-0.4-0.8-0.6-1.3c-0.1-0.5-0.2-1-0.2-1.7c0-0.6,0.1-1.2,0.2-1.8
					c0.1-0.6,0.3-1.2,0.5-1.7c0.2-0.6,0.5-1.1,0.8-1.6c0.3-0.5,0.7-0.9,1.1-1.3c0.4-0.4,0.9-0.7,1.3-0.9c0.5-0.2,1-0.3,1.5-0.3
					c0.6,0,1.2,0.1,1.7,0.4c0.5,0.3,0.9,0.7,1.3,1.2l0.8-6.6H200.5z M198.5,20.7c-0.2-0.3-0.4-0.5-0.6-0.8c-0.2-0.2-0.4-0.4-0.7-0.5
					c-0.2-0.1-0.5-0.2-0.7-0.3c-0.3-0.1-0.5-0.1-0.8-0.1c-0.5,0-0.9,0.1-1.3,0.3c-0.4,0.2-0.8,0.5-1.1,0.8c-0.3,0.3-0.6,0.7-0.9,1.2
					c-0.3,0.4-0.5,0.9-0.7,1.4c-0.2,0.5-0.3,1-0.4,1.5s-0.1,1-0.1,1.5c0,1,0.2,1.8,0.6,2.4c0.4,0.6,0.9,0.8,1.7,0.8
					c0.4,0,0.9-0.1,1.3-0.4c0.4-0.2,0.8-0.6,1.3-1c0.4-0.4,0.8-1,1.1-1.6c0.4-0.6,0.7-1.3,0.9-2L198.5,20.7z"/>
				<path fill="#255775" stroke="#265674" stroke-miterlimit="10" d="M209.2,27.6c-0.4,0.4-0.7,0.7-1.1,1c-0.4,0.3-0.7,0.5-1.1,0.7
					c-0.4,0.2-0.7,0.3-1.1,0.4c-0.4,0.1-0.8,0.1-1.2,0.1c-0.6,0-1.2-0.1-1.7-0.3s-0.9-0.5-1.2-0.9c-0.3-0.4-0.6-0.8-0.8-1.4
					c-0.2-0.5-0.3-1.2-0.3-1.8c0-0.6,0.1-1.1,0.2-1.7c0.1-0.6,0.3-1.1,0.5-1.7c0.2-0.5,0.5-1,0.8-1.5c0.3-0.5,0.7-0.9,1.1-1.2
					s0.9-0.6,1.4-0.8c0.5-0.2,1.1-0.3,1.7-0.3c0.6,0,1,0.1,1.4,0.2c0.4,0.2,0.7,0.3,0.9,0.6c0.2,0.2,0.4,0.5,0.5,0.7
					c0.1,0.3,0.2,0.5,0.2,0.8c0,0.3,0,0.6-0.1,0.9s-0.2,0.5-0.4,0.8c-0.2,0.2-0.5,0.5-0.9,0.7s-0.8,0.4-1.4,0.6
					c-0.6,0.2-1.2,0.4-2,0.5c-0.8,0.2-1.7,0.3-2.8,0.4c0,0.2,0,0.3,0,0.5s0,0.3,0,0.5c0,1.1,0.3,2,0.8,2.6c0.5,0.6,1.3,1,2.3,1
					c0.4,0,0.8,0,1.1-0.1c0.3-0.1,0.6-0.2,0.9-0.3c0.3-0.1,0.5-0.3,0.7-0.4c0.2-0.2,0.4-0.3,0.5-0.4s0.3-0.2,0.4-0.3
					c0.1-0.1,0.2-0.1,0.3-0.1c0.1,0,0.2,0,0.2,0.1L209.2,27.6z M206.4,19.1c-0.6,0-1.1,0.1-1.6,0.4s-0.9,0.6-1.3,1
					c-0.4,0.4-0.7,0.9-0.9,1.5c-0.3,0.6-0.4,1.1-0.6,1.8c1-0.1,1.8-0.2,2.5-0.4c0.7-0.1,1.3-0.3,1.8-0.4c0.5-0.2,0.9-0.3,1.2-0.5
					c0.3-0.2,0.5-0.4,0.7-0.6s0.3-0.4,0.3-0.6s0.1-0.4,0.1-0.6c0-0.2,0-0.3-0.1-0.5c-0.1-0.2-0.2-0.4-0.4-0.5s-0.4-0.3-0.7-0.4
					S206.8,19.1,206.4,19.1z"/>
				<path fill="#255775" stroke="#265674" stroke-miterlimit="10" d="M216.8,22.2c0.3-0.6,0.6-1.1,1-1.6c0.4-0.5,0.7-0.9,1.1-1.3
					s0.8-0.6,1.3-0.8c0.4-0.2,0.9-0.3,1.3-0.3c0.5,0,0.9,0.1,1.3,0.3c0.4,0.2,0.7,0.5,0.9,0.8c0.2,0.3,0.4,0.8,0.6,1.3
					c0.1,0.5,0.2,1,0.2,1.6c0,0.6-0.1,1.2-0.2,1.8c-0.1,0.6-0.3,1.2-0.5,1.7c-0.2,0.6-0.5,1.1-0.8,1.6c-0.3,0.5-0.7,0.9-1.1,1.3
					c-0.4,0.4-0.9,0.7-1.3,0.9c-0.5,0.2-1,0.3-1.5,0.3c-0.6,0-1.2-0.1-1.7-0.4c-0.5-0.3-1-0.7-1.3-1.3l-0.2,1.2
					c0,0.1-0.1,0.2-0.1,0.3c0,0.1-0.1,0.1-0.3,0.1h-0.5l2-16.5h1.1L216.8,22.2z M216.2,27.4c0.2,0.3,0.4,0.6,0.6,0.8
					c0.2,0.2,0.4,0.4,0.7,0.5s0.5,0.2,0.7,0.3c0.3,0.1,0.5,0.1,0.8,0.1c0.5,0,0.9-0.1,1.3-0.3c0.4-0.2,0.8-0.5,1.1-0.8
					c0.3-0.3,0.6-0.7,0.9-1.2s0.5-0.9,0.7-1.4s0.3-1,0.4-1.5c0.1-0.5,0.1-1,0.1-1.5c0-1-0.2-1.8-0.6-2.4s-0.9-0.8-1.7-0.8
					c-0.4,0-0.9,0.1-1.3,0.4s-0.9,0.6-1.3,1c-0.4,0.4-0.8,1-1.1,1.6c-0.4,0.6-0.7,1.3-0.9,2.1L216.2,27.4z"/>
				<path fill="#255775" stroke="#265674" stroke-miterlimit="10" d="M233.8,27.6c-0.4,0.4-0.7,0.7-1.1,1c-0.4,0.3-0.7,0.5-1.1,0.7
					c-0.4,0.2-0.7,0.3-1.1,0.4c-0.4,0.1-0.8,0.1-1.2,0.1c-0.6,0-1.2-0.1-1.7-0.3s-0.9-0.5-1.2-0.9c-0.3-0.4-0.6-0.8-0.8-1.4
					c-0.2-0.5-0.3-1.2-0.3-1.8c0-0.6,0.1-1.1,0.2-1.7c0.1-0.6,0.3-1.1,0.5-1.7c0.2-0.5,0.5-1,0.8-1.5c0.3-0.5,0.7-0.9,1.1-1.2
					s0.9-0.6,1.4-0.8c0.5-0.2,1.1-0.3,1.7-0.3c0.6,0,1,0.1,1.4,0.2c0.4,0.2,0.7,0.3,0.9,0.6c0.2,0.2,0.4,0.5,0.5,0.7
					c0.1,0.3,0.2,0.5,0.2,0.8c0,0.3,0,0.6-0.1,0.9s-0.2,0.5-0.4,0.8c-0.2,0.2-0.5,0.5-0.9,0.7s-0.8,0.4-1.4,0.6
					c-0.6,0.2-1.2,0.4-2,0.5c-0.8,0.2-1.7,0.3-2.8,0.4c0,0.2,0,0.3,0,0.5s0,0.3,0,0.5c0,1.1,0.3,2,0.8,2.6c0.5,0.6,1.3,1,2.3,1
					c0.4,0,0.8,0,1.1-0.1c0.3-0.1,0.6-0.2,0.9-0.3c0.3-0.1,0.5-0.3,0.7-0.4c0.2-0.2,0.4-0.3,0.5-0.4s0.3-0.2,0.4-0.3
					c0.1-0.1,0.2-0.1,0.3-0.1c0.1,0,0.2,0,0.2,0.1L233.8,27.6z M231,19.1c-0.6,0-1.1,0.1-1.6,0.4s-0.9,0.6-1.3,1
					c-0.4,0.4-0.7,0.9-0.9,1.5c-0.3,0.6-0.4,1.1-0.6,1.8c1-0.1,1.8-0.2,2.5-0.4c0.7-0.1,1.3-0.3,1.8-0.4c0.5-0.2,0.9-0.3,1.2-0.5
					c0.3-0.2,0.5-0.4,0.7-0.6s0.3-0.4,0.3-0.6s0.1-0.4,0.1-0.6c0-0.2,0-0.3-0.1-0.5c-0.1-0.2-0.2-0.4-0.4-0.5s-0.4-0.3-0.7-0.4
					S231.4,19.1,231,19.1z"/>
				<path fill="#255775" stroke="#265674" stroke-miterlimit="10" d="M236.8,22.1c0.3-0.6,0.6-1.1,1-1.6c0.4-0.5,0.8-0.9,1.2-1.2
					c0.4-0.3,0.8-0.6,1.3-0.7s0.9-0.3,1.3-0.3c0.5,0,0.9,0.1,1.2,0.3c0.3,0.2,0.6,0.5,0.8,0.8s0.3,0.8,0.4,1.3
					c0.1,0.5,0.1,1.1,0,1.8l-0.8,7.2h-1.1l0.8-7.2c0.1-1.1,0.1-1.9-0.2-2.5c-0.3-0.6-0.8-0.9-1.5-0.9c-0.4,0-0.8,0.1-1.3,0.3
					c-0.4,0.2-0.8,0.5-1.2,0.9c-0.4,0.4-0.8,0.9-1.1,1.4c-0.4,0.6-0.7,1.2-0.9,1.9l-0.7,6h-1.1l1.3-11.3h0.5c0.3,0,0.4,0.1,0.4,0.4
					L236.8,22.1z"/>
				<path fill="#255775" stroke="#265674" stroke-miterlimit="10" d="M253.8,27.6c-0.4,0.4-0.7,0.7-1.1,1c-0.4,0.3-0.7,0.5-1.1,0.7
					c-0.4,0.2-0.7,0.3-1.1,0.4c-0.4,0.1-0.8,0.1-1.2,0.1c-0.6,0-1.2-0.1-1.7-0.3s-0.9-0.5-1.2-0.9c-0.3-0.4-0.6-0.8-0.8-1.4
					c-0.2-0.5-0.3-1.2-0.3-1.8c0-0.6,0.1-1.1,0.2-1.7c0.1-0.6,0.3-1.1,0.5-1.7c0.2-0.5,0.5-1,0.8-1.5c0.3-0.5,0.7-0.9,1.1-1.2
					s0.9-0.6,1.4-0.8c0.5-0.2,1.1-0.3,1.7-0.3c0.6,0,1,0.1,1.4,0.2c0.4,0.2,0.7,0.3,0.9,0.6c0.2,0.2,0.4,0.5,0.5,0.7
					c0.1,0.3,0.2,0.5,0.2,0.8c0,0.3,0,0.6-0.1,0.9s-0.2,0.5-0.4,0.8c-0.2,0.2-0.5,0.5-0.9,0.7s-0.8,0.4-1.4,0.6
					c-0.6,0.2-1.2,0.4-2,0.5c-0.8,0.2-1.7,0.3-2.8,0.4c0,0.2,0,0.3,0,0.5s0,0.3,0,0.5c0,1.1,0.3,2,0.8,2.6c0.5,0.6,1.3,1,2.3,1
					c0.4,0,0.8,0,1.1-0.1c0.3-0.1,0.6-0.2,0.9-0.3c0.3-0.1,0.5-0.3,0.7-0.4c0.2-0.2,0.4-0.3,0.5-0.4s0.3-0.2,0.4-0.3
					c0.1-0.1,0.2-0.1,0.3-0.1c0.1,0,0.2,0,0.2,0.1L253.8,27.6z M251,19.1c-0.6,0-1.1,0.1-1.6,0.4s-0.9,0.6-1.3,1
					c-0.4,0.4-0.7,0.9-0.9,1.5c-0.3,0.6-0.4,1.1-0.6,1.8c1-0.1,1.8-0.2,2.5-0.4c0.7-0.1,1.3-0.3,1.8-0.4c0.5-0.2,0.9-0.3,1.2-0.5
					c0.3-0.2,0.5-0.4,0.7-0.6s0.3-0.4,0.3-0.6s0.1-0.4,0.1-0.6c0-0.2,0-0.3-0.1-0.5c-0.1-0.2-0.2-0.4-0.4-0.5s-0.4-0.3-0.7-0.4
					S251.4,19.1,251,19.1z"/>
				<path fill="#255775" stroke="#265674" stroke-miterlimit="10" d="M257.8,18.8h6.1l-1.3,10.9h-1.1l1.2-10.1h-5l-1.2,9.9l-0.5,2.6
					c-0.1,0.3-0.3,0.5-0.6,0.5h-0.4l1.6-12.9l-1.4-0.1c-0.2,0-0.3-0.1-0.3-0.3l0-0.5h1.8l0.2-1.6c0.2-1.3,0.5-2.2,1.1-2.9
					c0.6-0.7,1.2-1,2.1-1c0.1,0,0.3,0,0.4,0c0.1,0,0.3,0,0.3,0.1l-0.1,0.6c0,0.1-0.1,0.1-0.1,0.1c-0.1,0-0.2,0-0.4,0
					c-0.6,0-1.1,0.3-1.4,0.8c-0.4,0.5-0.6,1.3-0.8,2.3L257.8,18.8z M266.1,13.5l-2.6,2.9c-0.1,0.1-0.1,0.1-0.2,0.2
					c-0.1,0-0.1,0-0.2,0h-0.6l1.9-2.7c0.1-0.1,0.2-0.2,0.3-0.3s0.2-0.1,0.4-0.1H266.1z"/>
				<path fill="#255775" stroke="#265674" stroke-miterlimit="10" d="M272,28.7c-0.4,0.3-0.7,0.5-1.1,0.7s-0.7,0.3-1,0.3
					s-0.7,0.1-1.1,0.1c-0.6,0-1.2-0.1-1.7-0.3c-0.5-0.2-0.9-0.5-1.2-0.9c-0.3-0.4-0.6-0.9-0.7-1.4c-0.2-0.6-0.2-1.1-0.2-1.8
					c0-0.6,0.1-1.2,0.2-1.8c0.1-0.6,0.3-1.1,0.5-1.7c0.2-0.5,0.5-1,0.8-1.5c0.3-0.4,0.7-0.8,1.1-1.2c0.4-0.3,0.9-0.6,1.4-0.8
					s1-0.3,1.6-0.3c0.4,0,0.7,0,1,0.1c0.3,0.1,0.6,0.2,0.8,0.3c0.2,0.1,0.5,0.3,0.7,0.5c0.2,0.2,0.4,0.4,0.6,0.6l-0.3,0.4
					c-0.1,0.1-0.1,0.1-0.2,0.1c-0.1,0-0.2-0.1-0.3-0.2c-0.1-0.1-0.3-0.3-0.4-0.4c-0.2-0.1-0.4-0.3-0.7-0.4c-0.3-0.1-0.7-0.2-1.1-0.2
					c-0.6,0-1.2,0.2-1.8,0.5s-1,0.8-1.4,1.4c-0.4,0.6-0.7,1.2-1,2c-0.2,0.8-0.3,1.5-0.3,2.3c0,0.5,0.1,1,0.2,1.4
					c0.1,0.4,0.3,0.8,0.5,1.2c0.2,0.3,0.6,0.6,0.9,0.8c0.4,0.2,0.8,0.3,1.3,0.3c0.4,0,0.8,0,1.1-0.1c0.3-0.1,0.6-0.2,0.8-0.3
					s0.5-0.3,0.6-0.4c0.2-0.2,0.3-0.3,0.5-0.4c0.1-0.1,0.3-0.2,0.4-0.3c0.1-0.1,0.2-0.1,0.3-0.1s0.2,0,0.2,0.1l0.2,0.3
					C272.8,28.1,272.4,28.5,272,28.7z"/>
				<path fill="#255775" stroke="#265674" stroke-miterlimit="10" d="M276.7,18.4l-1.4,11.3h-1.1l1.4-11.3H276.7z M277.6,14.6
					c0,0.1,0,0.3-0.1,0.4c-0.1,0.1-0.1,0.2-0.2,0.3c-0.1,0.1-0.2,0.2-0.3,0.2c-0.1,0.1-0.2,0.1-0.4,0.1c-0.1,0-0.2,0-0.4-0.1
					c-0.1-0.1-0.2-0.1-0.3-0.2c-0.1-0.1-0.2-0.2-0.2-0.3s-0.1-0.2-0.1-0.4s0-0.3,0.1-0.4s0.1-0.2,0.2-0.3c0.1-0.1,0.2-0.2,0.3-0.2
					c0.1-0.1,0.2-0.1,0.4-0.1c0.1,0,0.2,0,0.4,0.1c0.1,0.1,0.2,0.1,0.3,0.2c0.1,0.1,0.2,0.2,0.2,0.3S277.6,14.4,277.6,14.6z"/>
				<path fill="#255775" stroke="#265674" stroke-miterlimit="10" d="M281.8,29.8c-0.6,0-1.2-0.1-1.6-0.3c-0.5-0.2-0.9-0.5-1.3-0.9
					c-0.4-0.4-0.6-0.9-0.8-1.5c-0.2-0.6-0.3-1.2-0.3-1.9c0-0.9,0.1-1.8,0.4-2.6s0.7-1.6,1.1-2.2c0.5-0.6,1.1-1.2,1.8-1.5
					c0.7-0.4,1.4-0.6,2.2-0.6c0.6,0,1.2,0.1,1.6,0.3c0.5,0.2,0.9,0.5,1.3,0.9s0.6,0.9,0.8,1.5s0.3,1.2,0.3,1.9
					c0,0.9-0.1,1.8-0.4,2.6s-0.7,1.6-1.1,2.2s-1.1,1.2-1.8,1.5C283.4,29.7,282.6,29.8,281.8,29.8z M281.9,29c0.7,0,1.3-0.2,1.8-0.5
					c0.5-0.3,1-0.8,1.4-1.4c0.4-0.6,0.7-1.2,0.9-2c0.2-0.7,0.3-1.5,0.3-2.3c0-1.2-0.3-2.1-0.8-2.8c-0.5-0.6-1.3-1-2.2-1
					c-0.7,0-1.3,0.2-1.8,0.5c-0.5,0.3-1,0.8-1.4,1.4s-0.7,1.2-0.9,1.9c-0.2,0.7-0.3,1.5-0.3,2.3c0,1.2,0.3,2.1,0.8,2.8
					S281,29,281.9,29z"/>
				<path fill="#255775" stroke="#265674" stroke-miterlimit="10" d="M295.3,19.8c-0.1,0.1-0.1,0.2-0.2,0.2c-0.1,0-0.2,0-0.3-0.1
					c-0.1-0.1-0.3-0.2-0.4-0.3c-0.2-0.1-0.4-0.2-0.7-0.3c-0.3-0.1-0.6-0.1-1-0.1c-0.4,0-0.7,0.1-1.1,0.2c-0.3,0.1-0.6,0.3-0.9,0.5
					c-0.3,0.2-0.5,0.5-0.6,0.7c-0.1,0.3-0.2,0.6-0.2,0.9c0,0.3,0.1,0.6,0.2,0.8c0.1,0.2,0.3,0.4,0.6,0.5c0.2,0.2,0.5,0.3,0.8,0.4
					c0.3,0.1,0.6,0.2,0.9,0.3c0.3,0.1,0.6,0.2,0.9,0.4c0.3,0.1,0.6,0.3,0.8,0.5c0.2,0.2,0.4,0.4,0.6,0.7c0.1,0.3,0.2,0.6,0.2,1
					c0,0.5-0.1,1-0.3,1.4c-0.2,0.5-0.5,0.9-0.8,1.2c-0.4,0.4-0.8,0.6-1.3,0.8s-1.1,0.3-1.7,0.3c-0.7,0-1.3-0.1-1.8-0.4
					c-0.5-0.3-0.9-0.6-1.3-1l0.3-0.4c0.1-0.1,0.2-0.2,0.3-0.2c0.1,0,0.2,0.1,0.3,0.2c0.1,0.1,0.3,0.3,0.5,0.4
					c0.2,0.1,0.4,0.3,0.8,0.4c0.3,0.1,0.7,0.2,1.2,0.2c0.5,0,0.9-0.1,1.2-0.2s0.7-0.3,0.9-0.6c0.3-0.3,0.5-0.6,0.6-0.9
					c0.1-0.3,0.2-0.7,0.2-1.1c0-0.3-0.1-0.6-0.2-0.8c-0.1-0.2-0.3-0.4-0.6-0.6c-0.2-0.2-0.5-0.3-0.8-0.4s-0.6-0.2-0.9-0.3
					c-0.3-0.1-0.6-0.2-0.9-0.4c-0.3-0.1-0.6-0.3-0.8-0.5c-0.2-0.2-0.4-0.4-0.6-0.7s-0.2-0.6-0.2-1c0-0.4,0.1-0.9,0.3-1.3
					c0.2-0.4,0.5-0.8,0.8-1.1c0.3-0.3,0.7-0.6,1.2-0.7c0.5-0.2,1-0.3,1.5-0.3c0.6,0,1.2,0.1,1.6,0.3c0.5,0.2,0.9,0.5,1.2,0.9
					L295.3,19.8z"/>
				<path fill="#255775" stroke="#265674" stroke-miterlimit="10" d="M295.9,32.4C295.9,32.4,295.9,32.3,295.9,32.4
					c-0.1-0.1-0.1-0.2-0.1-0.2c0-0.1,0.1-0.2,0.2-0.3c0.1-0.1,0.3-0.3,0.4-0.5s0.3-0.5,0.4-0.7s0.2-0.6,0.3-0.9
					c-0.1,0-0.2,0.1-0.4,0.1c-0.3,0-0.5-0.1-0.7-0.3s-0.3-0.4-0.3-0.7c0-0.3,0.1-0.5,0.3-0.7c0.2-0.2,0.4-0.3,0.7-0.3
					c0.3,0,0.6,0.1,0.8,0.3s0.3,0.5,0.3,0.9c0,0.3,0,0.6-0.1,0.9c-0.1,0.3-0.2,0.6-0.3,0.9c-0.2,0.3-0.3,0.6-0.5,0.9
					c-0.2,0.3-0.4,0.6-0.7,0.8L295.9,32.4z"/>
				<path fill="#255775" stroke="#265674" stroke-miterlimit="10" d="M311.3,19.8c-0.1,0.1-0.1,0.2-0.2,0.2c-0.1,0-0.2,0-0.3-0.1
					c-0.1-0.1-0.3-0.2-0.4-0.3c-0.2-0.1-0.4-0.2-0.7-0.3c-0.3-0.1-0.6-0.1-1-0.1c-0.4,0-0.7,0.1-1.1,0.2c-0.3,0.1-0.6,0.3-0.9,0.5
					c-0.3,0.2-0.5,0.5-0.6,0.7c-0.1,0.3-0.2,0.6-0.2,0.9c0,0.3,0.1,0.6,0.2,0.8c0.1,0.2,0.3,0.4,0.6,0.5c0.2,0.2,0.5,0.3,0.8,0.4
					c0.3,0.1,0.6,0.2,0.9,0.3c0.3,0.1,0.6,0.2,0.9,0.4c0.3,0.1,0.6,0.3,0.8,0.5c0.2,0.2,0.4,0.4,0.6,0.7c0.1,0.3,0.2,0.6,0.2,1
					c0,0.5-0.1,1-0.3,1.4c-0.2,0.5-0.5,0.9-0.8,1.2c-0.4,0.4-0.8,0.6-1.3,0.8s-1.1,0.3-1.7,0.3c-0.7,0-1.3-0.1-1.8-0.4
					c-0.5-0.3-0.9-0.6-1.3-1l0.3-0.4c0.1-0.1,0.2-0.2,0.3-0.2c0.1,0,0.2,0.1,0.3,0.2c0.1,0.1,0.3,0.3,0.5,0.4
					c0.2,0.1,0.4,0.3,0.8,0.4c0.3,0.1,0.7,0.2,1.2,0.2c0.5,0,0.9-0.1,1.2-0.2s0.7-0.3,0.9-0.6c0.3-0.3,0.5-0.6,0.6-0.9
					c0.1-0.3,0.2-0.7,0.2-1.1c0-0.3-0.1-0.6-0.2-0.8c-0.1-0.2-0.3-0.4-0.6-0.6c-0.2-0.2-0.5-0.3-0.8-0.4s-0.6-0.2-0.9-0.3
					c-0.3-0.1-0.6-0.2-0.9-0.4c-0.3-0.1-0.6-0.3-0.8-0.5c-0.2-0.2-0.4-0.4-0.6-0.7s-0.2-0.6-0.2-1c0-0.4,0.1-0.9,0.3-1.3
					c0.2-0.4,0.5-0.8,0.8-1.1c0.3-0.3,0.7-0.6,1.2-0.7c0.5-0.2,1-0.3,1.5-0.3c0.6,0,1.2,0.1,1.6,0.3c0.5,0.2,0.9,0.5,1.2,0.9
					L311.3,19.8z"/>
				<path fill="#255775" stroke="#265674" stroke-miterlimit="10" d="M319.4,25.8c-0.3,0.6-0.6,1.2-0.9,1.7
					c-0.3,0.5-0.7,0.9-1.1,1.3c-0.4,0.4-0.8,0.6-1.2,0.8s-0.9,0.3-1.3,0.3c-0.5,0-0.9-0.1-1.2-0.3c-0.4-0.2-0.7-0.4-0.9-0.8
					c-0.2-0.3-0.4-0.8-0.5-1.2c-0.1-0.5-0.2-1-0.2-1.6c0-0.7,0.1-1.3,0.3-1.9c0.2-0.6,0.4-1.2,0.7-1.8c0.3-0.6,0.7-1.1,1.1-1.6
					s0.9-0.9,1.4-1.2s1.1-0.6,1.6-0.8c0.6-0.2,1.2-0.3,1.8-0.3c0.4,0,0.9,0,1.3,0.1c0.4,0.1,0.8,0.2,1.2,0.4l-1.3,10.9h-0.5
					c-0.2,0-0.3,0-0.3-0.1c-0.1-0.1-0.1-0.2-0.1-0.3L319.4,25.8z M320.1,19.3c-0.2-0.1-0.5-0.1-0.7-0.2s-0.5-0.1-0.7-0.1
					c-0.8,0-1.5,0.2-2.2,0.6c-0.7,0.4-1.3,0.9-1.8,1.5c-0.5,0.6-0.9,1.3-1.2,2.1s-0.5,1.6-0.5,2.5c0,1,0.2,1.8,0.5,2.4
					c0.3,0.6,0.9,0.8,1.6,0.8c0.4,0,0.9-0.1,1.3-0.4c0.4-0.2,0.8-0.6,1.2-1c0.4-0.4,0.7-1,1.1-1.6c0.3-0.6,0.6-1.3,0.9-2L320.1,19.3
					z"/>
				<path fill="#255775" stroke="#265674" stroke-miterlimit="10" d="M324.8,18.4l-1.4,11.3h-1.1l1.4-11.3H324.8z M325.6,14.6
					c0,0.1,0,0.3-0.1,0.4c-0.1,0.1-0.1,0.2-0.2,0.3c-0.1,0.1-0.2,0.2-0.3,0.2c-0.1,0.1-0.2,0.1-0.4,0.1c-0.1,0-0.2,0-0.4-0.1
					c-0.1-0.1-0.2-0.1-0.3-0.2c-0.1-0.1-0.2-0.2-0.2-0.3s-0.1-0.2-0.1-0.4s0-0.3,0.1-0.4s0.1-0.2,0.2-0.3c0.1-0.1,0.2-0.2,0.3-0.2
					c0.1-0.1,0.2-0.1,0.4-0.1c0.1,0,0.2,0,0.4,0.1c0.1,0.1,0.2,0.1,0.3,0.2c0.1,0.1,0.2,0.2,0.2,0.3S325.6,14.4,325.6,14.6z"/>
				<path fill="#255775" stroke="#265674" stroke-miterlimit="10" d="M327.8,22.2c0.3-0.6,0.6-1.1,1-1.6c0.4-0.5,0.7-0.9,1.1-1.3
					s0.8-0.6,1.3-0.8c0.4-0.2,0.9-0.3,1.3-0.3c0.5,0,0.9,0.1,1.3,0.3c0.4,0.2,0.7,0.5,0.9,0.8c0.2,0.3,0.4,0.8,0.6,1.3
					c0.1,0.5,0.2,1,0.2,1.6c0,0.6-0.1,1.2-0.2,1.8c-0.1,0.6-0.3,1.2-0.5,1.7c-0.2,0.6-0.5,1.1-0.8,1.6c-0.3,0.5-0.7,0.9-1.1,1.3
					c-0.4,0.4-0.9,0.7-1.3,0.9c-0.5,0.2-1,0.3-1.5,0.3c-0.6,0-1.2-0.1-1.7-0.4c-0.5-0.3-1-0.7-1.3-1.3l-0.2,1.2
					c0,0.1-0.1,0.2-0.1,0.3c0,0.1-0.1,0.1-0.3,0.1h-0.5l2-16.5h1.1L327.8,22.2z M327.2,27.4c0.2,0.3,0.4,0.6,0.6,0.8
					c0.2,0.2,0.4,0.4,0.7,0.5s0.5,0.2,0.7,0.3c0.3,0.1,0.5,0.1,0.8,0.1c0.5,0,0.9-0.1,1.3-0.3c0.4-0.2,0.8-0.5,1.1-0.8
					c0.3-0.3,0.6-0.7,0.9-1.2s0.5-0.9,0.7-1.4s0.3-1,0.4-1.5c0.1-0.5,0.1-1,0.1-1.5c0-1-0.2-1.8-0.6-2.4s-0.9-0.8-1.7-0.8
					c-0.4,0-0.9,0.1-1.3,0.4s-0.9,0.6-1.3,1c-0.4,0.4-0.8,1-1.1,1.6c-0.4,0.6-0.7,1.3-0.9,2.1L327.2,27.4z"/>
				<path fill="#255775" stroke="#265674" stroke-miterlimit="10" d="M343.7,25.8c-0.3,0.6-0.6,1.2-0.9,1.7
					c-0.3,0.5-0.7,0.9-1.1,1.3c-0.4,0.4-0.8,0.6-1.2,0.8s-0.9,0.3-1.3,0.3c-0.5,0-0.9-0.1-1.2-0.3c-0.4-0.2-0.7-0.4-0.9-0.8
					c-0.2-0.3-0.4-0.8-0.5-1.2c-0.1-0.5-0.2-1-0.2-1.6c0-0.7,0.1-1.3,0.3-1.9c0.2-0.6,0.4-1.2,0.7-1.8c0.3-0.6,0.7-1.1,1.1-1.6
					s0.9-0.9,1.4-1.2s1.1-0.6,1.6-0.8c0.6-0.2,1.2-0.3,1.8-0.3c0.4,0,0.9,0,1.3,0.1c0.4,0.1,0.8,0.2,1.2,0.4l-1.3,10.9h-0.5
					c-0.2,0-0.3,0-0.3-0.1c-0.1-0.1-0.1-0.2-0.1-0.3L343.7,25.8z M344.5,19.3c-0.2-0.1-0.5-0.1-0.7-0.2s-0.5-0.1-0.7-0.1
					c-0.8,0-1.5,0.2-2.2,0.6c-0.7,0.4-1.3,0.9-1.8,1.5c-0.5,0.6-0.9,1.3-1.2,2.1s-0.5,1.6-0.5,2.5c0,1,0.2,1.8,0.5,2.4
					c0.3,0.6,0.9,0.8,1.6,0.8c0.4,0,0.9-0.1,1.3-0.4c0.4-0.2,0.8-0.6,1.2-1c0.4-0.4,0.7-1,1.1-1.6c0.3-0.6,0.6-1.3,0.9-2L344.5,19.3
					z"/>
				<path fill="#255775" stroke="#265674" stroke-miterlimit="10" d="M358.1,28.7c-0.4,0.3-0.7,0.5-1.1,0.7s-0.7,0.3-1,0.3
					s-0.7,0.1-1.1,0.1c-0.6,0-1.2-0.1-1.7-0.3c-0.5-0.2-0.9-0.5-1.2-0.9c-0.3-0.4-0.6-0.9-0.7-1.4c-0.2-0.6-0.2-1.1-0.2-1.8
					c0-0.6,0.1-1.2,0.2-1.8c0.1-0.6,0.3-1.1,0.5-1.7c0.2-0.5,0.5-1,0.8-1.5c0.3-0.4,0.7-0.8,1.1-1.2c0.4-0.3,0.9-0.6,1.4-0.8
					s1-0.3,1.6-0.3c0.4,0,0.7,0,1,0.1c0.3,0.1,0.6,0.2,0.8,0.3c0.2,0.1,0.5,0.3,0.7,0.5c0.2,0.2,0.4,0.4,0.6,0.6l-0.3,0.4
					c-0.1,0.1-0.1,0.1-0.2,0.1c-0.1,0-0.2-0.1-0.3-0.2c-0.1-0.1-0.3-0.3-0.4-0.4c-0.2-0.1-0.4-0.3-0.7-0.4c-0.3-0.1-0.7-0.2-1.1-0.2
					c-0.6,0-1.2,0.2-1.8,0.5s-1,0.8-1.4,1.4c-0.4,0.6-0.7,1.2-1,2c-0.2,0.8-0.3,1.5-0.3,2.3c0,0.5,0.1,1,0.2,1.4
					c0.1,0.4,0.3,0.8,0.5,1.2c0.2,0.3,0.6,0.6,0.9,0.8c0.4,0.2,0.8,0.3,1.3,0.3c0.4,0,0.8,0,1.1-0.1c0.3-0.1,0.6-0.2,0.8-0.3
					s0.5-0.3,0.6-0.4c0.2-0.2,0.3-0.3,0.5-0.4c0.1-0.1,0.3-0.2,0.4-0.3c0.1-0.1,0.2-0.1,0.3-0.1s0.2,0,0.2,0.1l0.2,0.3
					C358.9,28.1,358.5,28.5,358.1,28.7z"/>
				<path fill="#255775" stroke="#265674" stroke-miterlimit="10" d="M364.1,29.8c-0.6,0-1.2-0.1-1.6-0.3c-0.5-0.2-0.9-0.5-1.3-0.9
					c-0.4-0.4-0.6-0.9-0.8-1.5c-0.2-0.6-0.3-1.2-0.3-1.9c0-0.9,0.1-1.8,0.4-2.6s0.7-1.6,1.1-2.2c0.5-0.6,1.1-1.2,1.8-1.5
					c0.7-0.4,1.4-0.6,2.2-0.6c0.6,0,1.2,0.1,1.6,0.3c0.5,0.2,0.9,0.5,1.3,0.9s0.6,0.9,0.8,1.5s0.3,1.2,0.3,1.9
					c0,0.9-0.1,1.8-0.4,2.6s-0.7,1.6-1.1,2.2s-1.1,1.2-1.8,1.5C365.6,29.7,364.9,29.8,364.1,29.8z M364.2,29c0.7,0,1.3-0.2,1.8-0.5
					c0.5-0.3,1-0.8,1.4-1.4c0.4-0.6,0.7-1.2,0.9-2c0.2-0.7,0.3-1.5,0.3-2.3c0-1.2-0.3-2.1-0.8-2.8c-0.5-0.6-1.3-1-2.2-1
					c-0.7,0-1.3,0.2-1.8,0.5c-0.5,0.3-1,0.8-1.4,1.4s-0.7,1.2-0.9,1.9c-0.2,0.7-0.3,1.5-0.3,2.3c0,1.2,0.3,2.1,0.8,2.8
					S363.2,29,364.2,29z"/>
				<path fill="#255775" stroke="#265674" stroke-miterlimit="10" d="M370.6,29.7l1.4-11.3h0.5c0.3,0,0.4,0.1,0.4,0.4l-0.3,3.1
					c0.6-1.2,1.3-2.1,2-2.7s1.6-1,2.4-1c0.4,0,0.8,0.1,1.1,0.2s0.5,0.4,0.7,0.7s0.3,0.7,0.3,1.1c0,0.4,0,1,0,1.5
					c0.3-0.6,0.6-1.1,1-1.6c0.4-0.4,0.7-0.8,1.1-1.1c0.4-0.3,0.8-0.5,1.2-0.7c0.4-0.1,0.8-0.2,1.2-0.2c0.5,0,0.9,0.1,1.2,0.3
					c0.3,0.2,0.6,0.5,0.7,0.8c0.2,0.4,0.3,0.8,0.3,1.3c0,0.5,0,1.1-0.1,1.8l-0.8,7.2h-1.1l0.8-7.2c0.1-0.5,0.1-1,0.1-1.4
					c0-0.4-0.1-0.8-0.2-1c-0.1-0.3-0.3-0.5-0.5-0.6c-0.2-0.1-0.5-0.2-0.9-0.2c-0.4,0-0.7,0.1-1.1,0.3c-0.4,0.2-0.8,0.4-1.1,0.8
					s-0.7,0.8-1,1.3c-0.3,0.5-0.6,1.1-0.9,1.8l-0.8,6.4h-1.1l0.8-7.2c0.1-0.5,0.1-1,0.1-1.4c0-0.4,0-0.8-0.1-1s-0.3-0.5-0.5-0.6
					c-0.2-0.1-0.5-0.2-0.9-0.2c-0.9,0-1.7,0.4-2.4,1.2c-0.7,0.8-1.4,1.9-1.9,3.3l-0.7,6H370.6z"/>
				<path fill="#255775" stroke="#265674" stroke-miterlimit="10" d="M391.1,29.8c-0.6,0-1.2-0.1-1.6-0.3c-0.5-0.2-0.9-0.5-1.3-0.9
					c-0.4-0.4-0.6-0.9-0.8-1.5c-0.2-0.6-0.3-1.2-0.3-1.9c0-0.9,0.1-1.8,0.4-2.6s0.7-1.6,1.1-2.2c0.5-0.6,1.1-1.2,1.8-1.5
					c0.7-0.4,1.4-0.6,2.2-0.6c0.6,0,1.2,0.1,1.6,0.3c0.5,0.2,0.9,0.5,1.3,0.9s0.6,0.9,0.8,1.5s0.3,1.2,0.3,1.9
					c0,0.9-0.1,1.8-0.4,2.6s-0.7,1.6-1.1,2.2s-1.1,1.2-1.8,1.5C392.6,29.7,391.9,29.8,391.1,29.8z M391.2,29c0.7,0,1.3-0.2,1.8-0.5
					c0.5-0.3,1-0.8,1.4-1.4c0.4-0.6,0.7-1.2,0.9-2c0.2-0.7,0.3-1.5,0.3-2.3c0-1.2-0.3-2.1-0.8-2.8c-0.5-0.6-1.3-1-2.2-1
					c-0.7,0-1.3,0.2-1.8,0.5c-0.5,0.3-1,0.8-1.4,1.4s-0.7,1.2-0.9,1.9c-0.2,0.7-0.3,1.5-0.3,2.3c0,1.2,0.3,2.1,0.8,2.8
					S390.2,29,391.2,29z"/>
				<path fill="#255775" stroke="#265674" stroke-miterlimit="10" d="M397.5,28.8c0-0.1,0-0.3,0.1-0.4c0.1-0.1,0.1-0.2,0.2-0.3
					c0.1-0.1,0.2-0.2,0.3-0.2c0.1-0.1,0.3-0.1,0.4-0.1c0.1,0,0.3,0,0.4,0.1c0.1,0.1,0.2,0.1,0.3,0.2c0.1,0.1,0.2,0.2,0.2,0.3
					c0.1,0.1,0.1,0.3,0.1,0.4c0,0.2,0,0.3-0.1,0.4c-0.1,0.1-0.1,0.2-0.2,0.3c-0.1,0.1-0.2,0.2-0.3,0.2c-0.1,0.1-0.3,0.1-0.4,0.1
					c-0.3,0-0.5-0.1-0.7-0.3C397.6,29.4,397.5,29.1,397.5,28.8z"/>
				<path fill="#255775" stroke="#265674" stroke-miterlimit="10" d="M401.6,28.8c0-0.1,0-0.3,0.1-0.4c0.1-0.1,0.1-0.2,0.2-0.3
					c0.1-0.1,0.2-0.2,0.3-0.2c0.1-0.1,0.3-0.1,0.4-0.1c0.1,0,0.3,0,0.4,0.1c0.1,0.1,0.2,0.1,0.3,0.2c0.1,0.1,0.2,0.2,0.2,0.3
					c0.1,0.1,0.1,0.3,0.1,0.4c0,0.2,0,0.3-0.1,0.4c-0.1,0.1-0.1,0.2-0.2,0.3c-0.1,0.1-0.2,0.2-0.3,0.2c-0.1,0.1-0.3,0.1-0.4,0.1
					c-0.3,0-0.5-0.1-0.7-0.3C401.7,29.4,401.6,29.1,401.6,28.8z"/>
				<path fill="#255775" stroke="#265674" stroke-miterlimit="10" d="M405.6,28.8c0-0.1,0-0.3,0.1-0.4c0.1-0.1,0.1-0.2,0.2-0.3
					c0.1-0.1,0.2-0.2,0.3-0.2c0.1-0.1,0.3-0.1,0.4-0.1c0.1,0,0.3,0,0.4,0.1c0.1,0.1,0.2,0.1,0.3,0.2c0.1,0.1,0.2,0.2,0.2,0.3
					c0.1,0.1,0.1,0.3,0.1,0.4c0,0.2,0,0.3-0.1,0.4c-0.1,0.1-0.1,0.2-0.2,0.3c-0.1,0.1-0.2,0.2-0.3,0.2c-0.1,0.1-0.3,0.1-0.4,0.1
					c-0.3,0-0.5-0.1-0.7-0.3C405.7,29.4,405.6,29.1,405.6,28.8z"/>
			</g>
		</g>
	</g>
</g>
</svg>
