<?xml version="1.0" encoding="utf-8"?>
<!-- Generator: Adobe Illustrator 18.0.0, SVG Export Plug-In . SVG Version: 6.00 Build 0)  -->
<!DOCTYPE svg PUBLIC "-//W3C//DTD SVG 1.1//EN" "http://www.w3.org/Graphics/SVG/1.1/DTD/svg11.dtd">
<svg version="1.1" id="Capa_1" xmlns="http://www.w3.org/2000/svg" xmlns:xlink="http://www.w3.org/1999/xlink" x="0px" y="0px"
	 viewBox="0 0 44 44" enable-background="new 0 0 44 44" xml:space="preserve">
<path fill="#F9A431" d="M23.9,22l7.7-7.7c0.5-0.5,0.5-1.4,0-1.9s-1.4-0.5-1.9,0L22,20.1l-7.7-7.7c-0.5-0.5-1.4-0.5-1.9,0
	s-0.5,1.4,0,1.9l7.7,7.7l-7.7,7.7c-0.5,0.5-0.5,1.4,0,1.9c0.5,0.5,1.4,0.5,1.9,0l7.7-7.7l7.7,7.7c0.5,0.5,1.4,0.5,1.9,0
	c0.5-0.5,0.5-1.4,0-1.9L23.9,22z"/>
<circle opacity="0.75" fill="none" stroke="#235674" stroke-width="2" stroke-miterlimit="10" enable-background="new    " cx="22" cy="22" r="19.8"/>
</svg>
