<?xml version="1.0" encoding="utf-8"?>
<!-- Generator: Adobe Illustrator 18.0.0, SVG Export Plug-In . SVG Version: 6.00 Build 0)  -->
<!DOCTYPE svg PUBLIC "-//W3C//DTD SVG 1.1//EN" "http://www.w3.org/Graphics/SVG/1.1/DTD/svg11.dtd">
<svg version="1.1" id="Camada_1" xmlns="http://www.w3.org/2000/svg" xmlns:xlink="http://www.w3.org/1999/xlink" x="0px" y="0px"
	 viewBox="0 0 255.6 39.5" enable-background="new 0 0 255.6 39.5" xml:space="preserve">
<rect x="13.5" y="10.2" fill="#F6A12A" width="104.8" height="25"/>
<path fill="#035973" d="M13.3,31l-8.2-8.2c-2.1-2.1-2.1-5.6,0-7.7c2.1-2.1,5.5-2.1,7.7,0c0,0,0,0,0,0l9.6,9.6c1.2,1.2,1.2,3,0,4.2
	c-1.2,1.2-3,1.2-4.2,0l-7.6-7.6c-0.1-0.1-0.6-0.7-0.6-1.2c0-0.2,0-0.4,0.4-0.8c0.4-0.4,0.4-1.2,0-1.6c-0.4-0.4-1.2-0.4-1.6,0
	c-0.7,0.7-1,1.5-1,2.4c0,1.5,1.1,2.6,1.2,2.7l7.6,7.6c1,1,2.4,1.5,3.7,1.5c1.3,0,2.7-0.5,3.7-1.5c2-2,2-5.4,0-7.4l-9.6-9.6
	c0,0,0,0,0,0c0,0,0,0,0,0l-0.2-0.2c-0.1-0.1-0.1-0.1-0.2-0.2c-3-2.6-7.6-2.5-10.4,0.4c-3,3-3,7.9,0,10.9l9.8,9.8L13.3,31z"/>
<path fill="#035973" d="M26,34.4c-0.4-0.4-1.2-0.4-1.6,0c-1.8,1.8-4.5,2.1-6.6,0.8l-1.1,0c-0.8,0-1.6,0-2.3,0c0,0,0,0,0,0l0,0
	l0.1,0.1l0.7,0.7c1.5,1.5,3.5,2.3,5.4,2.3c2,0,3.9-0.8,5.4-2.3C26.5,35.6,26.5,34.8,26,34.4z"/>
<g>
	<path fill="#FFFFFF" stroke="#FFFFFF" stroke-miterlimit="10" d="M44.4,17.2l-1.6,13h-0.6c-0.2,0-0.3,0-0.4-0.1
		c-0.1-0.1-0.1-0.2-0.1-0.4l0.4-3.7c-0.4,0.7-0.8,1.3-1.2,1.8c-0.4,0.5-0.9,1-1.4,1.4s-1,0.7-1.5,0.9c-0.5,0.2-1,0.3-1.5,0.3
		c-1.1,0-1.9-0.4-2.4-1.3c-0.5-0.9-0.6-2.1-0.4-3.6l1-8.3h1.2l-1,8.3c-0.1,1.2-0.1,2.2,0.2,2.9c0.3,0.7,0.9,1,1.8,1
		c0.5,0,1-0.1,1.5-0.4s1-0.6,1.4-1.1s0.9-1,1.3-1.6c0.4-0.6,0.8-1.4,1.1-2.2l0.8-6.9H44.4z M43.4,11.5l-3,3.3
		c-0.1,0.1-0.1,0.1-0.2,0.2c-0.1,0-0.2,0-0.2,0h-0.7l2.2-3.1c0.1-0.2,0.2-0.3,0.3-0.3s0.3-0.1,0.4-0.1H43.4z"/>
	<path fill="#FFFFFF" stroke="#FFFFFF" stroke-miterlimit="10" d="M45.7,30.2l2.3-19h1.2l-2.3,19H45.7z"/>
	<path fill="#FFFFFF" stroke="#FFFFFF" stroke-miterlimit="10" d="M61.1,18.5l-1.4,11.7h-1.2l1.4-11.7H53l-0.9,7.4
		c0,0.4-0.1,0.6-0.1,0.9c0,0.2,0,0.4-0.1,0.6c0,0.1,0,0.3,0,0.3c0,0.1,0,0.1,0,0.2c0,0.6,0.1,1,0.4,1.2c0.3,0.3,0.6,0.4,1,0.4
		c0.3,0,0.5,0,0.8-0.1c0.2-0.1,0.4-0.2,0.6-0.3c0.2-0.1,0.3-0.2,0.4-0.3c0.1-0.1,0.2-0.1,0.2-0.1c0.1,0,0.1,0,0.2,0.1l0.2,0.5
		c-0.4,0.4-0.8,0.7-1.3,0.9c-0.5,0.2-1,0.3-1.5,0.3c-0.7,0-1.3-0.2-1.7-0.6s-0.6-1-0.6-1.8c0-0.1,0-0.1,0-0.2s0-0.2,0-0.4
		c0-0.2,0-0.4,0.1-0.6c0-0.2,0.1-0.6,0.1-0.9l0.9-7.4h-1.7c-0.1,0-0.2,0-0.2-0.1c-0.1-0.1-0.1-0.1-0.1-0.2l0.1-0.5l2.1-0.2l0.9-4.7
		c0-0.1,0.1-0.1,0.1-0.2c0.1-0.1,0.1-0.1,0.2-0.1h0.6l-0.6,5h8.1L61.1,18.5z M62.4,12.7c0,0.2,0,0.3-0.1,0.4
		c-0.1,0.1-0.2,0.3-0.3,0.4s-0.2,0.2-0.4,0.2c-0.1,0.1-0.3,0.1-0.4,0.1c-0.1,0-0.3,0-0.4-0.1s-0.2-0.1-0.3-0.2s-0.2-0.2-0.2-0.4
		c-0.1-0.1-0.1-0.3-0.1-0.4c0-0.2,0-0.3,0.1-0.4c0.1-0.1,0.1-0.3,0.2-0.4c0.1-0.1,0.2-0.2,0.3-0.3s0.3-0.1,0.4-0.1
		c0.1,0,0.3,0,0.4,0.1c0.1,0.1,0.3,0.1,0.4,0.2c0.1,0.1,0.2,0.2,0.2,0.4C62.4,12.4,62.4,12.6,62.4,12.7z"/>
	<path fill="#FFFFFF" stroke="#FFFFFF" stroke-miterlimit="10" d="M62.6,30.2l1.6-13.1h0.6c0.3,0,0.5,0.2,0.5,0.5l-0.4,3.6
		c0.7-1.4,1.5-2.4,2.4-3.1C68,17.4,69,17,69.9,17c0.5,0,0.9,0.1,1.3,0.3c0.3,0.2,0.6,0.5,0.8,0.8c0.2,0.4,0.3,0.8,0.4,1.3
		c0.1,0.5,0.1,1.1,0,1.8c0.3-0.7,0.7-1.3,1.1-1.8c0.4-0.5,0.8-1,1.3-1.3c0.4-0.3,0.9-0.6,1.4-0.8c0.5-0.2,0.9-0.3,1.4-0.3
		c0.6,0,1,0.1,1.4,0.3c0.4,0.2,0.7,0.5,0.9,1c0.2,0.4,0.3,0.9,0.4,1.5c0,0.6,0,1.3-0.1,2.1l-1,8.3h-1.2l1-8.3
		c0.1-0.6,0.1-1.2,0.1-1.6c0-0.5-0.1-0.9-0.2-1.2s-0.3-0.6-0.6-0.7c-0.3-0.2-0.6-0.2-1-0.2c-0.4,0-0.9,0.1-1.3,0.3
		c-0.4,0.2-0.9,0.5-1.3,0.9c-0.4,0.4-0.8,0.9-1.2,1.5c-0.4,0.6-0.7,1.3-1,2.1l-0.9,7.4h-1.2l1-8.3c0.1-0.6,0.1-1.2,0.1-1.6
		s-0.1-0.9-0.2-1.2c-0.1-0.3-0.3-0.6-0.5-0.7c-0.2-0.2-0.6-0.2-1-0.2c-1,0-1.9,0.5-2.8,1.4c-0.8,0.9-1.6,2.2-2.2,3.8l-0.8,7H62.6z"
		/>
	<path fill="#FFFFFF" stroke="#FFFFFF" stroke-miterlimit="10" d="M90.1,25.7c-0.3,0.7-0.7,1.3-1.1,1.9c-0.4,0.6-0.8,1.1-1.3,1.5
		c-0.5,0.4-0.9,0.7-1.4,1s-1,0.3-1.5,0.3c-0.5,0-1-0.1-1.4-0.3c-0.4-0.2-0.8-0.5-1-0.9s-0.5-0.9-0.6-1.4c-0.1-0.6-0.2-1.2-0.2-1.9
		c0-0.8,0.1-1.5,0.3-2.2c0.2-0.7,0.5-1.4,0.8-2.1c0.3-0.7,0.8-1.3,1.3-1.8c0.5-0.5,1-1,1.6-1.4c0.6-0.4,1.2-0.7,1.9-0.9
		c0.7-0.2,1.4-0.3,2.1-0.3c0.5,0,1,0,1.5,0.1c0.5,0.1,0.9,0.3,1.3,0.5l-1.5,12.6h-0.6c-0.2,0-0.3,0-0.4-0.1
		c-0.1-0.1-0.1-0.2-0.1-0.3L90.1,25.7z M91,18.2c-0.3-0.1-0.5-0.2-0.8-0.2c-0.3,0-0.6-0.1-0.9-0.1c-0.9,0-1.7,0.2-2.5,0.6
		c-0.8,0.4-1.5,1-2.1,1.7c-0.6,0.7-1.1,1.5-1.4,2.5c-0.4,0.9-0.5,1.9-0.5,2.9c0,1.2,0.2,2.1,0.6,2.7c0.4,0.6,1,1,1.9,1
		c0.5,0,1-0.1,1.5-0.4c0.5-0.3,0.9-0.7,1.4-1.2c0.4-0.5,0.9-1.1,1.2-1.8c0.4-0.7,0.7-1.5,1-2.4L91,18.2z"/>
	<path fill="#FFFFFF" stroke="#FFFFFF" stroke-miterlimit="10" d="M101.4,18.8c-0.1,0.1-0.2,0.2-0.3,0.2c-0.1,0-0.2-0.1-0.3-0.2
		c-0.1-0.1-0.3-0.2-0.5-0.4c-0.2-0.1-0.5-0.3-0.8-0.4c-0.3-0.1-0.7-0.2-1.2-0.2c-0.4,0-0.9,0.1-1.3,0.2c-0.4,0.1-0.7,0.3-1,0.6
		s-0.5,0.5-0.7,0.9c-0.2,0.3-0.3,0.7-0.3,1c0,0.4,0.1,0.7,0.2,0.9c0.2,0.2,0.4,0.5,0.7,0.6c0.3,0.2,0.6,0.3,0.9,0.5
		c0.3,0.1,0.7,0.3,1.1,0.4c0.4,0.1,0.7,0.3,1.1,0.4c0.3,0.2,0.7,0.4,0.9,0.6c0.3,0.2,0.5,0.5,0.7,0.8s0.2,0.7,0.2,1.2
		c0,0.6-0.1,1.1-0.3,1.6c-0.2,0.5-0.5,1-1,1.4c-0.4,0.4-0.9,0.7-1.5,1c-0.6,0.2-1.2,0.4-1.9,0.4c-0.8,0-1.5-0.1-2.1-0.4
		c-0.6-0.3-1.1-0.7-1.5-1.1l0.3-0.4c0.1-0.1,0.2-0.2,0.4-0.2c0.1,0,0.2,0.1,0.3,0.2c0.1,0.1,0.3,0.3,0.5,0.5
		c0.2,0.2,0.5,0.3,0.9,0.5c0.4,0.1,0.8,0.2,1.3,0.2c0.5,0,1-0.1,1.4-0.3c0.4-0.2,0.8-0.4,1.1-0.7c0.3-0.3,0.5-0.6,0.7-1
		c0.2-0.4,0.2-0.8,0.2-1.2c0-0.4-0.1-0.7-0.2-1c-0.2-0.3-0.4-0.5-0.7-0.7c-0.3-0.2-0.6-0.3-0.9-0.5c-0.3-0.1-0.7-0.3-1.1-0.4
		c-0.4-0.1-0.7-0.3-1.1-0.4c-0.3-0.2-0.7-0.3-0.9-0.6c-0.3-0.2-0.5-0.5-0.7-0.8c-0.2-0.3-0.2-0.7-0.2-1.2c0-0.5,0.1-1,0.3-1.5
		c0.2-0.5,0.5-0.9,0.9-1.2c0.4-0.4,0.9-0.6,1.4-0.9c0.5-0.2,1.1-0.3,1.8-0.3c0.7,0,1.4,0.1,1.9,0.3c0.5,0.2,1,0.6,1.4,1L101.4,18.8z
		"/>
</g>
<g>
	<g>
		<path fill="#005875" stroke="#025874" stroke-width="2" stroke-miterlimit="10" d="M137.4,10.9l-3.2,26.1h-0.8
			c-0.2,0-0.3,0-0.4-0.1c-0.1-0.1-0.2-0.2-0.3-0.3L120,13.8c0,0.1,0,0.3,0,0.4c0,0.1,0,0.3,0,0.4l-2.7,22.3h-1.6l3.2-26.1h0.9
			c0.2,0,0.3,0,0.4,0.1c0.1,0,0.2,0.1,0.3,0.3L133,33.9c0-0.2,0-0.3,0-0.5c0-0.2,0-0.3,0-0.4l2.7-22.1H137.4z"/>
		<path fill="#005875" stroke="#025874" stroke-width="2" stroke-miterlimit="10" d="M162.8,21.9c0,2.3-0.3,4.4-1,6.3
			c-0.7,1.9-1.6,3.5-2.8,4.8c-1.2,1.3-2.6,2.4-4.2,3.1s-3.4,1.1-5.3,1.1c-1.5,0-2.9-0.3-4.1-0.8s-2.3-1.3-3.1-2.3s-1.5-2.2-2-3.6
			c-0.5-1.4-0.7-2.9-0.7-4.6c0-2.3,0.3-4.4,1-6.3c0.7-1.9,1.6-3.5,2.8-4.8c1.2-1.3,2.6-2.4,4.2-3.1c1.6-0.7,3.4-1.1,5.2-1.1
			c1.5,0,2.9,0.3,4.2,0.8c1.2,0.5,2.3,1.3,3.1,2.3s1.5,2.2,2,3.6C162.5,18.7,162.8,20.2,162.8,21.9z M160.9,21.9
			c0-1.5-0.2-2.9-0.6-4.1c-0.4-1.2-0.9-2.2-1.7-3.1c-0.7-0.9-1.6-1.5-2.6-2c-1-0.5-2.2-0.7-3.4-0.7c-1.6,0-3.1,0.3-4.4,1
			c-1.4,0.6-2.5,1.6-3.5,2.7c-1,1.2-1.8,2.6-2.3,4.3c-0.6,1.7-0.8,3.6-0.8,5.7c0,1.5,0.2,2.9,0.6,4.1c0.4,1.2,1,2.2,1.7,3.1
			c0.7,0.8,1.6,1.5,2.6,2c1,0.5,2.2,0.7,3.4,0.7c1.6,0,3.1-0.3,4.5-0.9c1.4-0.6,2.5-1.5,3.5-2.7s1.8-2.6,2.3-4.3
			C160.6,26,160.9,24.1,160.9,21.9z"/>
		<path fill="#005875" stroke="#025874" stroke-width="2" stroke-miterlimit="10" d="M181.8,12.4h-8.4l-3,24.5h-1.8l3-24.5h-8.5
			l0.2-1.5h18.6L181.8,12.4z"/>
		<path fill="#005875" stroke="#025874" stroke-width="2" stroke-miterlimit="10" d="M182.9,36.9h-1.8l3.2-26.1h1.8L182.9,36.9z
			 M193.9,3l-6.1,5.3c-0.1,0.1-0.2,0.2-0.3,0.2c-0.1,0-0.2,0-0.4,0H186l5-5.1c0.2-0.2,0.3-0.3,0.5-0.3c0.1,0,0.3-0.1,0.6-0.1H193.9z
			"/>
		<path fill="#005875" stroke="#025874" stroke-width="2" stroke-miterlimit="10" d="M198.3,35.7c0.9,0,1.7-0.1,2.4-0.2
			c0.7-0.2,1.3-0.3,1.9-0.6c0.6-0.2,1-0.5,1.4-0.7c0.4-0.3,0.7-0.5,1-0.7c0.3-0.2,0.5-0.4,0.7-0.6c0.2-0.2,0.3-0.2,0.4-0.2
			c0.1,0,0.2,0,0.2,0.1l0.7,0.8c-1.1,1.1-2.4,2.1-3.9,2.7c-1.5,0.7-3.2,1-5.1,1c-1.5,0-2.9-0.3-4.1-0.8c-1.2-0.5-2.2-1.3-3.1-2.3
			c-0.9-1-1.5-2.2-2-3.6c-0.5-1.4-0.7-2.9-0.7-4.6c0-2.3,0.3-4.3,1-6.2c0.7-1.9,1.6-3.5,2.9-4.9c1.2-1.4,2.6-2.4,4.3-3.1
			c1.6-0.7,3.4-1.1,5.3-1.1c0.9,0,1.7,0.1,2.4,0.2c0.7,0.1,1.4,0.3,2,0.6c0.6,0.3,1.1,0.6,1.6,1c0.5,0.4,1,0.9,1.4,1.4l-0.6,0.7
			c-0.1,0.1-0.3,0.2-0.5,0.2c-0.1,0-0.2-0.1-0.4-0.2s-0.3-0.3-0.5-0.5c-0.2-0.2-0.5-0.4-0.8-0.6s-0.7-0.4-1.1-0.6
			c-0.4-0.2-1-0.4-1.6-0.5c-0.6-0.1-1.3-0.2-2.1-0.2c-1.6,0-3.1,0.3-4.5,1c-1.4,0.6-2.6,1.5-3.6,2.7c-1,1.2-1.8,2.6-2.4,4.3
			c-0.6,1.7-0.9,3.6-0.9,5.7c0,1.5,0.2,2.9,0.6,4.1s1,2.3,1.7,3.1c0.7,0.9,1.6,1.5,2.6,2C196,35.4,197.1,35.7,198.3,35.7z"/>
		<path fill="#005875" stroke="#025874" stroke-width="2" stroke-miterlimit="10" d="M211.5,36.9h-1.8l3.2-26.1h1.8L211.5,36.9z"/>
		<path fill="#005875" stroke="#025874" stroke-width="2" stroke-miterlimit="10" d="M235.2,36.9h-1.4c-0.2,0-0.3,0-0.4-0.1
			c-0.1-0.1-0.2-0.2-0.2-0.3l-1.9-7.6h-11.7l-3.7,7.6c-0.1,0.1-0.2,0.2-0.3,0.3c-0.1,0.1-0.3,0.1-0.4,0.1h-1.4l13-26.1h1.8
			L235.2,36.9z M231,27.5l-3.2-13.3c0-0.2-0.1-0.5-0.1-0.7c0-0.3-0.1,0.5-0.2,0.2c-0.1,0.3-0.2-0.4-0.3-0.2
			c-0.1,0.3-0.2,0.5-0.3,0.7l-6.5,13.2H231z"/>
		<path fill="#005875" stroke="#025874" stroke-width="2" stroke-miterlimit="10" d="M251.9,14c-0.1,0.2-0.3,0.3-0.5,0.3
			c-0.1,0-0.3-0.1-0.5-0.4c-0.2-0.2-0.5-0.5-0.9-0.8c-0.4-0.3-0.8-0.5-1.4-0.8c-0.6-0.2-1.3-0.4-2.1-0.4c-0.9,0-1.8,0.2-2.5,0.5
			c-0.7,0.3-1.4,0.7-1.9,1.2c-0.5,0.5-0.9,1.1-1.2,1.8c-0.3,0.7-0.4,1.4-0.4,2.2c0,0.7,0.2,1.4,0.5,1.9c0.3,0.5,0.7,0.9,1.2,1.3
			c0.5,0.4,1.1,0.7,1.7,0.9c0.6,0.3,1.3,0.5,2,0.8c0.7,0.3,1.3,0.5,2,0.8c0.6,0.3,1.2,0.7,1.7,1.1s0.9,1,1.2,1.6
			c0.3,0.6,0.5,1.4,0.5,2.3c0,1.2-0.2,2.3-0.6,3.4c-0.4,1.1-1,2-1.7,2.8c-0.8,0.8-1.7,1.4-2.8,1.9c-1.1,0.5-2.3,0.7-3.6,0.7
			c-1.6,0-2.9-0.3-4-0.9c-1.1-0.6-2-1.4-2.7-2.5l0.6-0.8c0.2-0.2,0.3-0.3,0.5-0.3c0.1,0,0.2,0.1,0.4,0.2c0.1,0.1,0.3,0.3,0.5,0.5
			c0.2,0.2,0.4,0.4,0.7,0.7c0.3,0.3,0.6,0.5,1,0.7c0.4,0.2,0.8,0.4,1.4,0.5c0.5,0.1,1.1,0.2,1.8,0.2c1,0,2-0.2,2.8-0.5
			c0.8-0.3,1.5-0.8,2.1-1.4c0.6-0.6,1-1.3,1.4-2.2s0.5-1.7,0.5-2.7c0-0.8-0.2-1.4-0.5-1.9c-0.3-0.5-0.7-0.9-1.2-1.3
			s-1.1-0.7-1.7-0.9c-0.6-0.2-1.3-0.5-1.9-0.7c-0.7-0.2-1.3-0.5-2-0.8s-1.2-0.7-1.7-1.1c-0.5-0.4-0.9-1-1.2-1.6
			c-0.3-0.6-0.5-1.4-0.5-2.3c0-1,0.2-2,0.5-2.9c0.4-0.9,0.9-1.7,1.5-2.4c0.7-0.7,1.5-1.3,2.5-1.7c1-0.4,2.1-0.6,3.3-0.6
			c1.3,0,2.4,0.2,3.3,0.7c0.9,0.5,1.8,1.1,2.4,2L251.9,14z"/>
	</g>
</g>
</svg>
