<?xml version="1.0" encoding="utf-8"?>
<!-- Generator: Adobe Illustrator 18.0.0, SVG Export Plug-In . SVG Version: 6.00 Build 0)  -->
<!DOCTYPE svg PUBLIC "-//W3C//DTD SVG 1.1//EN" "http://www.w3.org/Graphics/SVG/1.1/DTD/svg11.dtd">
<svg version="1.1" id="Camada_1" xmlns="http://www.w3.org/2000/svg" xmlns:xlink="http://www.w3.org/1999/xlink" x="0px" y="0px"
	 viewBox="0 0 172.3 32.3" enable-background="new 0 0 172.3 32.3" xml:space="preserve">
<path fill="#3D58A4" d="M26,1.2H6c-2.8,0-5,2.3-5,5v20c0,2.8,2.3,5,5,5l20,0c2.8,0,5-2.2,5-5v-20C31,3.4,28.8,1.2,26,1.2z
	 M26.5,16.2h-4.9v13.1H16V16.2h-2.7v-4.3H16V9.1c0-3.8,1.6-6,6.1-6h5.1v4.6H23c-1.2,0-1.4,0.6-1.4,1.9l0,2.3h5.6L26.5,16.2z"/>
<g>
	<path fill="#2B5874" d="M47.5,18.5c-0.3,0.5-0.5,1-0.9,1.5c-0.3,0.5-0.6,0.8-1,1.2c-0.4,0.3-0.7,0.6-1.1,0.7
		c-0.4,0.2-0.8,0.3-1.2,0.3c-0.4,0-0.8-0.1-1.1-0.3c-0.3-0.2-0.6-0.4-0.8-0.7c-0.2-0.3-0.4-0.7-0.5-1.1c-0.1-0.4-0.2-0.9-0.2-1.5
		c0-0.6,0.1-1.2,0.2-1.7c0.2-0.6,0.4-1.1,0.6-1.6s0.6-1,1-1.4c0.4-0.4,0.8-0.8,1.3-1.1c0.5-0.3,1-0.6,1.5-0.7
		c0.5-0.2,1.1-0.3,1.6-0.3c0.4,0,0.8,0,1.1,0.1c0.4,0.1,0.7,0.2,1.1,0.4L47.9,22h-0.5c-0.1,0-0.2,0-0.3-0.1c0-0.1-0.1-0.2-0.1-0.3
		L47.5,18.5z M48.1,12.6c-0.2-0.1-0.4-0.1-0.6-0.2s-0.4,0-0.7,0c-0.7,0-1.3,0.2-2,0.5c-0.6,0.3-1.2,0.8-1.6,1.3
		c-0.5,0.6-0.8,1.2-1.1,1.9c-0.3,0.7-0.4,1.5-0.4,2.3c0,0.9,0.2,1.6,0.5,2.1c0.3,0.5,0.8,0.8,1.5,0.8c0.4,0,0.8-0.1,1.1-0.3
		c0.4-0.2,0.7-0.5,1.1-0.9c0.3-0.4,0.7-0.9,1-1.4s0.6-1.2,0.8-1.9L48.1,12.6z"/>
	<path fill="#2B5874" d="M56.4,21.2c-0.3,0.3-0.6,0.5-1,0.6c-0.3,0.2-0.6,0.3-0.9,0.3c-0.3,0.1-0.7,0.1-1,0.1
		c-0.6,0-1.1-0.1-1.5-0.3s-0.8-0.5-1.1-0.8c-0.3-0.4-0.5-0.8-0.6-1.3c-0.1-0.5-0.2-1-0.2-1.6c0-0.5,0.1-1.1,0.2-1.6
		c0.1-0.5,0.3-1,0.5-1.5c0.2-0.5,0.5-0.9,0.8-1.3c0.3-0.4,0.6-0.8,1-1c0.4-0.3,0.8-0.5,1.2-0.7c0.4-0.2,0.9-0.3,1.4-0.3
		c0.3,0,0.6,0,0.9,0.1c0.3,0.1,0.5,0.2,0.7,0.3s0.4,0.3,0.6,0.4s0.4,0.4,0.5,0.6l-0.3,0.3c-0.1,0.1-0.1,0.1-0.2,0.1
		c-0.1,0-0.2-0.1-0.3-0.2c-0.1-0.1-0.2-0.2-0.4-0.4c-0.2-0.1-0.4-0.2-0.7-0.4c-0.3-0.1-0.6-0.2-1-0.2c-0.6,0-1.1,0.2-1.6,0.5
		c-0.5,0.3-0.9,0.7-1.3,1.2c-0.4,0.5-0.7,1.1-0.9,1.8c-0.2,0.7-0.3,1.4-0.3,2.1c0,0.5,0.1,0.9,0.2,1.3c0.1,0.4,0.3,0.8,0.5,1
		c0.2,0.3,0.5,0.5,0.8,0.7c0.3,0.2,0.7,0.2,1.2,0.2c0.4,0,0.7,0,1-0.1c0.3-0.1,0.5-0.2,0.8-0.3c0.2-0.1,0.4-0.2,0.6-0.4
		c0.2-0.1,0.3-0.3,0.4-0.4c0.1-0.1,0.2-0.2,0.3-0.3s0.2-0.1,0.3-0.1s0.1,0,0.2,0.1l0.2,0.3C57.1,20.6,56.7,20.9,56.4,21.2z"/>
	<path fill="#2B5874" d="M65.7,20.1c-0.3,0.4-0.7,0.7-1,0.9c-0.3,0.3-0.6,0.5-1,0.6c-0.3,0.2-0.7,0.3-1,0.4
		c-0.3,0.1-0.7,0.1-1.1,0.1c-0.6,0-1.1-0.1-1.5-0.3c-0.4-0.2-0.8-0.5-1.1-0.8c-0.3-0.3-0.5-0.8-0.7-1.3c-0.2-0.5-0.2-1.1-0.2-1.7
		c0-0.5,0.1-1,0.2-1.5s0.3-1,0.5-1.5c0.2-0.5,0.5-0.9,0.7-1.3c0.3-0.4,0.6-0.8,1-1.1c0.4-0.3,0.8-0.6,1.3-0.7c0.5-0.2,1-0.3,1.5-0.3
		c0.5,0,0.9,0.1,1.3,0.2s0.6,0.3,0.8,0.5c0.2,0.2,0.4,0.4,0.5,0.7c0.1,0.2,0.1,0.5,0.1,0.7c0,0.3,0,0.5-0.1,0.8s-0.2,0.5-0.4,0.7
		s-0.5,0.4-0.8,0.6c-0.3,0.2-0.7,0.4-1.3,0.5c-0.5,0.2-1.1,0.3-1.8,0.5c-0.7,0.1-1.5,0.3-2.5,0.4c0,0.1,0,0.3,0,0.4s0,0.3,0,0.4
		c0,1,0.2,1.8,0.7,2.4c0.5,0.6,1.2,0.9,2.1,0.9c0.4,0,0.7,0,1-0.1c0.3-0.1,0.6-0.2,0.8-0.3c0.2-0.1,0.4-0.3,0.6-0.4
		c0.2-0.1,0.3-0.3,0.5-0.4c0.1-0.1,0.3-0.2,0.4-0.3s0.2-0.1,0.3-0.1s0.2,0,0.2,0.1L65.7,20.1z M63.2,12.4c-0.5,0-1,0.1-1.5,0.3
		c-0.4,0.2-0.8,0.5-1.2,0.9c-0.3,0.4-0.6,0.8-0.9,1.3c-0.2,0.5-0.4,1-0.5,1.6c0.9-0.1,1.6-0.2,2.2-0.3c0.6-0.1,1.2-0.3,1.6-0.4
		c0.4-0.1,0.8-0.3,1.1-0.5s0.5-0.3,0.6-0.5c0.1-0.2,0.2-0.4,0.3-0.5c0.1-0.2,0.1-0.4,0.1-0.6c0-0.1,0-0.3-0.1-0.5s-0.2-0.3-0.3-0.5
		s-0.3-0.3-0.6-0.3C63.9,12.4,63.6,12.4,63.2,12.4z"/>
	<path fill="#2B5874" d="M73.1,13.1c-0.1,0.1-0.1,0.1-0.2,0.1c-0.1,0-0.2,0-0.3-0.1c-0.1-0.1-0.2-0.2-0.4-0.3
		c-0.2-0.1-0.4-0.2-0.6-0.3c-0.3-0.1-0.6-0.1-0.9-0.1c-0.3,0-0.7,0.1-1,0.2c-0.3,0.1-0.6,0.3-0.8,0.5c-0.2,0.2-0.4,0.4-0.5,0.7
		c-0.1,0.3-0.2,0.5-0.2,0.8c0,0.3,0.1,0.5,0.2,0.7s0.3,0.4,0.5,0.5c0.2,0.1,0.5,0.3,0.7,0.4c0.3,0.1,0.5,0.2,0.8,0.3
		c0.3,0.1,0.6,0.2,0.8,0.3c0.3,0.1,0.5,0.3,0.7,0.5c0.2,0.2,0.4,0.4,0.5,0.7c0.1,0.3,0.2,0.6,0.2,0.9c0,0.4-0.1,0.9-0.3,1.3
		c-0.2,0.4-0.4,0.8-0.7,1.1c-0.3,0.3-0.7,0.6-1.2,0.8c-0.5,0.2-1,0.3-1.5,0.3c-0.7,0-1.2-0.1-1.7-0.3c-0.4-0.2-0.8-0.5-1.2-0.9
		l0.2-0.3c0.1-0.1,0.2-0.2,0.3-0.2c0.1,0,0.2,0.1,0.3,0.2s0.2,0.2,0.4,0.4c0.2,0.1,0.4,0.3,0.7,0.4c0.3,0.1,0.6,0.2,1.1,0.2
		c0.4,0,0.8-0.1,1.1-0.2c0.3-0.1,0.6-0.3,0.9-0.5c0.2-0.2,0.4-0.5,0.5-0.8c0.1-0.3,0.2-0.6,0.2-1c0-0.3-0.1-0.6-0.2-0.8
		c-0.1-0.2-0.3-0.4-0.5-0.5c-0.2-0.1-0.5-0.3-0.7-0.4c-0.3-0.1-0.5-0.2-0.8-0.3c-0.3-0.1-0.6-0.2-0.8-0.3c-0.3-0.1-0.5-0.3-0.7-0.4
		c-0.2-0.2-0.4-0.4-0.5-0.6c-0.1-0.2-0.2-0.5-0.2-0.9c0-0.4,0.1-0.8,0.3-1.1c0.2-0.4,0.4-0.7,0.7-1s0.7-0.5,1.1-0.7
		c0.4-0.2,0.9-0.3,1.4-0.3c0.6,0,1.1,0.1,1.5,0.3c0.4,0.2,0.8,0.4,1.1,0.8L73.1,13.1z"/>
	<path fill="#2B5874" d="M80.1,13.1c-0.1,0.1-0.1,0.1-0.2,0.1c-0.1,0-0.2,0-0.3-0.1c-0.1-0.1-0.2-0.2-0.4-0.3
		c-0.2-0.1-0.4-0.2-0.6-0.3c-0.3-0.1-0.6-0.1-0.9-0.1c-0.3,0-0.7,0.1-1,0.2c-0.3,0.1-0.6,0.3-0.8,0.5c-0.2,0.2-0.4,0.4-0.5,0.7
		c-0.1,0.3-0.2,0.5-0.2,0.8c0,0.3,0.1,0.5,0.2,0.7s0.3,0.4,0.5,0.5c0.2,0.1,0.5,0.3,0.7,0.4c0.3,0.1,0.5,0.2,0.8,0.3
		c0.3,0.1,0.6,0.2,0.8,0.3c0.3,0.1,0.5,0.3,0.7,0.5c0.2,0.2,0.4,0.4,0.5,0.7c0.1,0.3,0.2,0.6,0.2,0.9c0,0.4-0.1,0.9-0.3,1.3
		c-0.2,0.4-0.4,0.8-0.7,1.1c-0.3,0.3-0.7,0.6-1.2,0.8c-0.5,0.2-1,0.3-1.5,0.3c-0.7,0-1.2-0.1-1.7-0.3c-0.4-0.2-0.8-0.5-1.2-0.9
		l0.2-0.3c0.1-0.1,0.2-0.2,0.3-0.2c0.1,0,0.2,0.1,0.3,0.2s0.2,0.2,0.4,0.4c0.2,0.1,0.4,0.3,0.7,0.4c0.3,0.1,0.6,0.2,1.1,0.2
		c0.4,0,0.8-0.1,1.1-0.2c0.3-0.1,0.6-0.3,0.9-0.5c0.2-0.2,0.4-0.5,0.5-0.8c0.1-0.3,0.2-0.6,0.2-1c0-0.3-0.1-0.6-0.2-0.8
		c-0.1-0.2-0.3-0.4-0.5-0.5c-0.2-0.1-0.5-0.3-0.7-0.4c-0.3-0.1-0.5-0.2-0.8-0.3c-0.3-0.1-0.6-0.2-0.8-0.3c-0.3-0.1-0.5-0.3-0.7-0.4
		c-0.2-0.2-0.4-0.4-0.5-0.6c-0.1-0.2-0.2-0.5-0.2-0.9c0-0.4,0.1-0.8,0.3-1.1c0.2-0.4,0.4-0.7,0.7-1s0.7-0.5,1.1-0.7
		c0.4-0.2,0.9-0.3,1.4-0.3c0.6,0,1.1,0.1,1.5,0.3c0.4,0.2,0.8,0.4,1.1,0.8L80.1,13.1z"/>
	<path fill="#2B5874" d="M88.4,20.1c-0.3,0.4-0.7,0.7-1,0.9c-0.3,0.3-0.6,0.5-1,0.6c-0.3,0.2-0.7,0.3-1,0.4
		c-0.3,0.1-0.7,0.1-1.1,0.1c-0.6,0-1.1-0.1-1.5-0.3c-0.4-0.2-0.8-0.5-1.1-0.8c-0.3-0.3-0.5-0.8-0.7-1.3c-0.2-0.5-0.2-1.1-0.2-1.7
		c0-0.5,0.1-1,0.2-1.5s0.3-1,0.5-1.5c0.2-0.5,0.5-0.9,0.7-1.3c0.3-0.4,0.6-0.8,1-1.1c0.4-0.3,0.8-0.6,1.3-0.7c0.5-0.2,1-0.3,1.5-0.3
		c0.5,0,0.9,0.1,1.3,0.2s0.6,0.3,0.8,0.5c0.2,0.2,0.4,0.4,0.5,0.7c0.1,0.2,0.1,0.5,0.1,0.7c0,0.3,0,0.5-0.1,0.8s-0.2,0.5-0.4,0.7
		s-0.5,0.4-0.8,0.6c-0.3,0.2-0.7,0.4-1.3,0.5c-0.5,0.2-1.1,0.3-1.8,0.5c-0.7,0.1-1.5,0.3-2.5,0.4c0,0.1,0,0.3,0,0.4s0,0.3,0,0.4
		c0,1,0.2,1.8,0.7,2.4c0.5,0.6,1.2,0.9,2.1,0.9c0.4,0,0.7,0,1-0.1c0.3-0.1,0.6-0.2,0.8-0.3c0.2-0.1,0.4-0.3,0.6-0.4
		c0.2-0.1,0.3-0.3,0.5-0.4c0.1-0.1,0.3-0.2,0.4-0.3s0.2-0.1,0.3-0.1s0.2,0,0.2,0.1L88.4,20.1z M85.9,12.4c-0.5,0-1,0.1-1.5,0.3
		c-0.4,0.2-0.8,0.5-1.2,0.9c-0.3,0.4-0.6,0.8-0.9,1.3c-0.2,0.5-0.4,1-0.5,1.6c0.9-0.1,1.6-0.2,2.2-0.3c0.6-0.1,1.2-0.3,1.6-0.4
		c0.4-0.1,0.8-0.3,1.1-0.5s0.5-0.3,0.6-0.5c0.1-0.2,0.2-0.4,0.3-0.5c0.1-0.2,0.1-0.4,0.1-0.6c0-0.1,0-0.3-0.1-0.5s-0.2-0.3-0.3-0.5
		s-0.3-0.3-0.6-0.3C86.5,12.4,86.3,12.4,85.9,12.4z"/>
	<path fill="#2B5874" d="M95.3,15.1c0.3-0.5,0.6-1,0.9-1.5c0.3-0.4,0.7-0.8,1.1-1.1c0.4-0.3,0.8-0.5,1.2-0.7
		c0.4-0.2,0.8-0.2,1.2-0.2c0.4,0,0.8,0.1,1.1,0.3c0.3,0.2,0.6,0.4,0.7,0.7c0.2,0.3,0.3,0.7,0.4,1.2c0.1,0.5,0,1,0,1.6l-0.8,6.5h-1
		l0.8-6.5c0.1-1,0.1-1.7-0.2-2.2c-0.2-0.5-0.7-0.8-1.4-0.8c-0.4,0-0.8,0.1-1.2,0.3c-0.4,0.2-0.8,0.5-1.1,0.8c-0.4,0.4-0.7,0.8-1,1.3
		c-0.3,0.5-0.6,1.1-0.9,1.7L94.6,22h-1l1.2-10.2h0.4c0.2,0,0.4,0.1,0.4,0.4L95.3,15.1z"/>
	<path fill="#2B5874" d="M106.8,22.2c-0.5,0-1-0.1-1.5-0.3c-0.4-0.2-0.8-0.5-1.1-0.8c-0.3-0.4-0.6-0.8-0.7-1.3
		c-0.2-0.5-0.3-1.1-0.3-1.8c0-0.8,0.1-1.6,0.4-2.4c0.2-0.8,0.6-1.4,1-2c0.4-0.6,1-1,1.6-1.4c0.6-0.3,1.3-0.5,2-0.5
		c0.5,0,1,0.1,1.5,0.3c0.4,0.2,0.8,0.5,1.1,0.8c0.3,0.4,0.6,0.8,0.7,1.3s0.3,1.1,0.3,1.7c0,0.8-0.1,1.6-0.4,2.4
		c-0.3,0.8-0.6,1.4-1,2c-0.4,0.6-1,1.1-1.6,1.4C108.2,22,107.5,22.2,106.8,22.2z M106.8,21.4c0.6,0,1.1-0.2,1.6-0.5
		c0.5-0.3,0.9-0.7,1.3-1.2c0.3-0.5,0.6-1.1,0.8-1.8c0.2-0.7,0.3-1.4,0.3-2.1c0-1.1-0.2-1.9-0.7-2.5c-0.5-0.6-1.2-0.9-2-0.9
		c-0.6,0-1.1,0.2-1.6,0.5c-0.5,0.3-0.9,0.7-1.3,1.2c-0.3,0.5-0.6,1.1-0.8,1.8c-0.2,0.7-0.3,1.4-0.3,2.1c0,1.1,0.2,1.9,0.7,2.5
		C105.3,21.1,106,21.4,106.8,21.4z"/>
	<path fill="#2B5874" d="M119,13.1c-0.1,0.1-0.1,0.1-0.2,0.1c-0.1,0-0.2,0-0.3-0.1c-0.1-0.1-0.2-0.2-0.4-0.3
		c-0.2-0.1-0.4-0.2-0.6-0.3c-0.3-0.1-0.6-0.1-0.9-0.1c-0.3,0-0.7,0.1-1,0.2c-0.3,0.1-0.6,0.3-0.8,0.5c-0.2,0.2-0.4,0.4-0.5,0.7
		c-0.1,0.3-0.2,0.5-0.2,0.8c0,0.3,0.1,0.5,0.2,0.7s0.3,0.4,0.5,0.5c0.2,0.1,0.5,0.3,0.7,0.4c0.3,0.1,0.5,0.2,0.8,0.3
		c0.3,0.1,0.6,0.2,0.8,0.3c0.3,0.1,0.5,0.3,0.7,0.5c0.2,0.2,0.4,0.4,0.5,0.7c0.1,0.3,0.2,0.6,0.2,0.9c0,0.4-0.1,0.9-0.3,1.3
		c-0.2,0.4-0.4,0.8-0.7,1.1c-0.3,0.3-0.7,0.6-1.2,0.8c-0.5,0.2-1,0.3-1.5,0.3c-0.7,0-1.2-0.1-1.7-0.3c-0.4-0.2-0.8-0.5-1.2-0.9
		l0.2-0.3c0.1-0.1,0.2-0.2,0.3-0.2c0.1,0,0.2,0.1,0.3,0.2s0.2,0.2,0.4,0.4c0.2,0.1,0.4,0.3,0.7,0.4c0.3,0.1,0.6,0.2,1.1,0.2
		c0.4,0,0.8-0.1,1.1-0.2c0.3-0.1,0.6-0.3,0.9-0.5c0.2-0.2,0.4-0.5,0.5-0.8c0.1-0.3,0.2-0.6,0.2-1c0-0.3-0.1-0.6-0.2-0.8
		c-0.1-0.2-0.3-0.4-0.5-0.5c-0.2-0.1-0.5-0.3-0.7-0.4c-0.3-0.1-0.5-0.2-0.8-0.3c-0.3-0.1-0.6-0.2-0.8-0.3c-0.3-0.1-0.5-0.3-0.7-0.4
		c-0.2-0.2-0.4-0.4-0.5-0.6c-0.1-0.2-0.2-0.5-0.2-0.9c0-0.4,0.1-0.8,0.3-1.1c0.2-0.4,0.4-0.7,0.7-1s0.7-0.5,1.1-0.7
		c0.4-0.2,0.9-0.3,1.4-0.3c0.6,0,1.1,0.1,1.5,0.3c0.4,0.2,0.8,0.4,1.1,0.8L119,13.1z"/>
	<path fill="#2B5874" d="M126,13.1c-0.1,0.1-0.1,0.1-0.2,0.1c-0.1,0-0.2,0-0.3-0.1c-0.1-0.1-0.2-0.2-0.4-0.3
		c-0.2-0.1-0.4-0.2-0.6-0.3c-0.3-0.1-0.6-0.1-0.9-0.1c-0.3,0-0.7,0.1-1,0.2c-0.3,0.1-0.6,0.3-0.8,0.5c-0.2,0.2-0.4,0.4-0.5,0.7
		c-0.1,0.3-0.2,0.5-0.2,0.8c0,0.3,0.1,0.5,0.2,0.7s0.3,0.4,0.5,0.5c0.2,0.1,0.5,0.3,0.7,0.4c0.3,0.1,0.5,0.2,0.8,0.3
		c0.3,0.1,0.6,0.2,0.8,0.3c0.3,0.1,0.5,0.3,0.7,0.5c0.2,0.2,0.4,0.4,0.5,0.7c0.1,0.3,0.2,0.6,0.2,0.9c0,0.4-0.1,0.9-0.3,1.3
		c-0.2,0.4-0.4,0.8-0.7,1.1c-0.3,0.3-0.7,0.6-1.2,0.8c-0.5,0.2-1,0.3-1.5,0.3c-0.7,0-1.2-0.1-1.7-0.3c-0.4-0.2-0.8-0.5-1.2-0.9
		l0.2-0.3c0.1-0.1,0.2-0.2,0.3-0.2c0.1,0,0.2,0.1,0.3,0.2s0.2,0.2,0.4,0.4c0.2,0.1,0.4,0.3,0.7,0.4c0.3,0.1,0.6,0.2,1.1,0.2
		c0.4,0,0.8-0.1,1.1-0.2c0.3-0.1,0.6-0.3,0.9-0.5c0.2-0.2,0.4-0.5,0.5-0.8c0.1-0.3,0.2-0.6,0.2-1c0-0.3-0.1-0.6-0.2-0.8
		c-0.1-0.2-0.3-0.4-0.5-0.5c-0.2-0.1-0.5-0.3-0.7-0.4c-0.3-0.1-0.5-0.2-0.8-0.3c-0.3-0.1-0.6-0.2-0.8-0.3c-0.3-0.1-0.5-0.3-0.7-0.4
		c-0.2-0.2-0.4-0.4-0.5-0.6c-0.1-0.2-0.2-0.5-0.2-0.9c0-0.4,0.1-0.8,0.3-1.1c0.2-0.4,0.4-0.7,0.7-1s0.7-0.5,1.1-0.7
		c0.4-0.2,0.9-0.3,1.4-0.3c0.6,0,1.1,0.1,1.5,0.3c0.4,0.2,0.8,0.4,1.1,0.8L126,13.1z"/>
	<path fill="#2B5874" d="M133.3,18.5c-0.3,0.5-0.5,1-0.9,1.5c-0.3,0.5-0.6,0.8-1,1.2c-0.4,0.3-0.7,0.6-1.1,0.7
		c-0.4,0.2-0.8,0.3-1.2,0.3c-0.4,0-0.8-0.1-1.1-0.3c-0.3-0.2-0.6-0.4-0.8-0.7c-0.2-0.3-0.4-0.7-0.5-1.1c-0.1-0.4-0.2-0.9-0.2-1.5
		c0-0.6,0.1-1.2,0.2-1.7c0.2-0.6,0.4-1.1,0.6-1.6s0.6-1,1-1.4c0.4-0.4,0.8-0.8,1.3-1.1c0.5-0.3,1-0.6,1.5-0.7
		c0.5-0.2,1.1-0.3,1.6-0.3c0.4,0,0.8,0,1.1,0.1c0.4,0.1,0.7,0.2,1.1,0.4l-1.2,9.9h-0.5c-0.1,0-0.2,0-0.3-0.1c0-0.1-0.1-0.2-0.1-0.3
		L133.3,18.5z M134,12.6c-0.2-0.1-0.4-0.1-0.6-0.2s-0.4,0-0.7,0c-0.7,0-1.3,0.2-2,0.5c-0.6,0.3-1.2,0.8-1.6,1.3
		c-0.5,0.6-0.8,1.2-1.1,1.9c-0.3,0.7-0.4,1.5-0.4,2.3c0,0.9,0.2,1.6,0.5,2.1c0.3,0.5,0.8,0.8,1.5,0.8c0.4,0,0.8-0.1,1.1-0.3
		c0.4-0.2,0.7-0.5,1.1-0.9c0.3-0.4,0.7-0.9,1-1.4s0.6-1.2,0.8-1.9L134,12.6z"/>
	<path fill="#2B5874" d="M141.8,15.2c0.3-0.7,0.6-1.3,0.9-1.7c0.3-0.5,0.7-0.9,1.1-1.2c0.4-0.3,0.8-0.5,1.2-0.5
		c0.4-0.1,0.8,0,1.2,0.1l-0.2,0.9c-0.5-0.2-0.9-0.2-1.3-0.1c-0.4,0.1-0.8,0.3-1.2,0.7c-0.4,0.3-0.7,0.8-1,1.4
		c-0.3,0.6-0.6,1.3-0.8,2.1L141,22h-1l1.2-10.2h0.4c0.2,0,0.4,0.1,0.4,0.4L141.8,15.2z"/>
	<path fill="#2B5874" d="M152.8,20.1c-0.3,0.4-0.7,0.7-1,0.9c-0.3,0.3-0.6,0.5-1,0.6c-0.3,0.2-0.7,0.3-1,0.4
		c-0.3,0.1-0.7,0.1-1.1,0.1c-0.6,0-1.1-0.1-1.5-0.3c-0.4-0.2-0.8-0.5-1.1-0.8c-0.3-0.3-0.5-0.8-0.7-1.3c-0.2-0.5-0.2-1.1-0.2-1.7
		c0-0.5,0.1-1,0.2-1.5s0.3-1,0.5-1.5c0.2-0.5,0.5-0.9,0.7-1.3c0.3-0.4,0.6-0.8,1-1.1c0.4-0.3,0.8-0.6,1.3-0.7c0.5-0.2,1-0.3,1.5-0.3
		c0.5,0,0.9,0.1,1.3,0.2s0.6,0.3,0.8,0.5c0.2,0.2,0.4,0.4,0.5,0.7c0.1,0.2,0.1,0.5,0.1,0.7c0,0.3,0,0.5-0.1,0.8s-0.2,0.5-0.4,0.7
		s-0.5,0.4-0.8,0.6c-0.3,0.2-0.7,0.4-1.3,0.5c-0.5,0.2-1.1,0.3-1.8,0.5c-0.7,0.1-1.5,0.3-2.5,0.4c0,0.1,0,0.3,0,0.4s0,0.3,0,0.4
		c0,1,0.2,1.8,0.7,2.4c0.5,0.6,1.2,0.9,2.1,0.9c0.4,0,0.7,0,1-0.1c0.3-0.1,0.6-0.2,0.8-0.3c0.2-0.1,0.4-0.3,0.6-0.4
		c0.2-0.1,0.3-0.3,0.5-0.4c0.1-0.1,0.3-0.2,0.4-0.3s0.2-0.1,0.3-0.1s0.2,0,0.2,0.1L152.8,20.1z M150.3,12.4c-0.5,0-1,0.1-1.5,0.3
		c-0.4,0.2-0.8,0.5-1.2,0.9c-0.3,0.4-0.6,0.8-0.9,1.3c-0.2,0.5-0.4,1-0.5,1.6c0.9-0.1,1.6-0.2,2.2-0.3c0.6-0.1,1.2-0.3,1.6-0.4
		c0.4-0.1,0.8-0.3,1.1-0.5s0.5-0.3,0.6-0.5c0.1-0.2,0.2-0.4,0.3-0.5c0.1-0.2,0.1-0.4,0.1-0.6c0-0.1,0-0.3-0.1-0.5s-0.2-0.3-0.3-0.5
		s-0.3-0.3-0.6-0.3C151,12.4,150.7,12.4,150.3,12.4z"/>
	<path fill="#2B5874" d="M163.1,7.1L161.3,22h-0.5c-0.1,0-0.2,0-0.3-0.1s-0.1-0.2-0.1-0.3l0.3-3.2c-0.3,0.6-0.6,1.1-0.9,1.5
		c-0.3,0.5-0.7,0.8-1.1,1.2c-0.4,0.3-0.8,0.6-1.2,0.8c-0.4,0.2-0.8,0.3-1.2,0.3c-0.4,0-0.8-0.1-1.2-0.3c-0.3-0.2-0.6-0.4-0.8-0.7
		s-0.4-0.7-0.5-1.1c-0.1-0.4-0.2-0.9-0.2-1.5c0-0.5,0.1-1.1,0.2-1.6c0.1-0.5,0.3-1.1,0.5-1.6c0.2-0.5,0.4-1,0.7-1.4
		c0.3-0.4,0.6-0.8,1-1.2c0.4-0.3,0.8-0.6,1.2-0.8c0.4-0.2,0.9-0.3,1.4-0.3c0.6,0,1.1,0.1,1.5,0.4c0.5,0.2,0.9,0.6,1.1,1.1l0.7-6
		H163.1z M161.3,13.9c-0.2-0.3-0.3-0.5-0.5-0.7c-0.2-0.2-0.4-0.3-0.6-0.5c-0.2-0.1-0.4-0.2-0.7-0.2c-0.2-0.1-0.5-0.1-0.7-0.1
		c-0.4,0-0.8,0.1-1.2,0.3c-0.4,0.2-0.7,0.4-1,0.7c-0.3,0.3-0.6,0.6-0.8,1c-0.2,0.4-0.4,0.8-0.6,1.3c-0.2,0.4-0.3,0.9-0.4,1.4
		c-0.1,0.5-0.1,0.9-0.1,1.4c0,0.9,0.2,1.6,0.5,2.1s0.9,0.8,1.5,0.8c0.4,0,0.8-0.1,1.2-0.3c0.4-0.2,0.8-0.5,1.1-0.9
		c0.4-0.4,0.7-0.9,1-1.4s0.6-1.2,0.8-1.9L161.3,13.9z"/>
	<path fill="#2B5874" d="M171,20.1c-0.3,0.4-0.7,0.7-1,0.9c-0.3,0.3-0.6,0.5-1,0.6c-0.3,0.2-0.7,0.3-1,0.4c-0.3,0.1-0.7,0.1-1.1,0.1
		c-0.6,0-1.1-0.1-1.5-0.3c-0.4-0.2-0.8-0.5-1.1-0.8c-0.3-0.3-0.5-0.8-0.7-1.3c-0.2-0.5-0.2-1.1-0.2-1.7c0-0.5,0.1-1,0.2-1.5
		s0.3-1,0.5-1.5c0.2-0.5,0.5-0.9,0.7-1.3c0.3-0.4,0.6-0.8,1-1.1c0.4-0.3,0.8-0.6,1.3-0.7c0.5-0.2,1-0.3,1.5-0.3
		c0.5,0,0.9,0.1,1.3,0.2s0.6,0.3,0.8,0.5c0.2,0.2,0.4,0.4,0.5,0.7c0.1,0.2,0.1,0.5,0.1,0.7c0,0.3,0,0.5-0.1,0.8s-0.2,0.5-0.4,0.7
		s-0.5,0.4-0.8,0.6c-0.3,0.2-0.7,0.4-1.3,0.5c-0.5,0.2-1.1,0.3-1.8,0.5c-0.7,0.1-1.5,0.3-2.5,0.4c0,0.1,0,0.3,0,0.4s0,0.3,0,0.4
		c0,1,0.2,1.8,0.7,2.4c0.5,0.6,1.2,0.9,2.1,0.9c0.4,0,0.7,0,1-0.1c0.3-0.1,0.6-0.2,0.8-0.3c0.2-0.1,0.4-0.3,0.6-0.4
		c0.2-0.1,0.3-0.3,0.5-0.4c0.1-0.1,0.3-0.2,0.4-0.3s0.2-0.1,0.3-0.1s0.2,0,0.2,0.1L171,20.1z M168.5,12.4c-0.5,0-1,0.1-1.5,0.3
		c-0.4,0.2-0.8,0.5-1.2,0.9c-0.3,0.4-0.6,0.8-0.9,1.3c-0.2,0.5-0.4,1-0.5,1.6c0.9-0.1,1.6-0.2,2.2-0.3c0.6-0.1,1.2-0.3,1.6-0.4
		c0.4-0.1,0.8-0.3,1.1-0.5s0.5-0.3,0.6-0.5c0.1-0.2,0.2-0.4,0.3-0.5c0.1-0.2,0.1-0.4,0.1-0.6c0-0.1,0-0.3-0.1-0.5s-0.2-0.3-0.3-0.5
		s-0.3-0.3-0.6-0.3C169.1,12.4,168.8,12.4,168.5,12.4z"/>
</g>
</svg>
