<?xml version="1.0" encoding="utf-8"?>
<!-- Generator: Adobe Illustrator 18.0.0, SVG Export Plug-In . SVG Version: 6.00 Build 0)  -->
<!DOCTYPE svg PUBLIC "-//W3C//DTD SVG 1.1//EN" "http://www.w3.org/Graphics/SVG/1.1/DTD/svg11.dtd">
<svg version="1.1" id="Camada_1" xmlns="http://www.w3.org/2000/svg" xmlns:xlink="http://www.w3.org/1999/xlink" x="0px" y="0px"
	 viewBox="0 0 145.3 48.7" enable-background="new 0 0 145.3 48.7" xml:space="preserve">
<path fill="#FEEAD2" d="M19.1,26.7c1.7-1.8,2.8-4.3,2.8-6.6c0-4.3-3.6-7.8-8-7.8c-4.4,0-8,3.5-8,7.8c0,1.1,0.2,2.2,0.6,3.2
	c1,2.2,2.9,3.9,5.4,4.5c0.5-0.6,1.2-0.9,2-0.9c1.4,0,2.6,1.1,2.6,2.6c0,1.4-1.2,2.6-2.6,2.6c-1,0-1.9-0.6-2.4-1.5
	c-2.1-0.5-4-1.5-5.4-2.9c-3.2,1.3-5.2,3.4-5.2,5.8c0,4,26,4,26,0C26.8,30.4,23.6,27.8,19.1,26.7z"/>
<path fill="#FEEAD2" d="M12.2,29.7c0.1,0.8,0.8,1.3,1.7,1.3c0.9,0,1.7-0.7,1.7-1.6c0-0.9-0.8-1.6-1.7-1.6c-0.7,0-1.3,0.4-1.6,1.1
	C8,28,4.8,24.4,4.8,20.1c0-4.9,4.1-8.8,9.1-8.8c5,0,9.1,4,9.1,8.8h0.9c0-5.4-4.5-9.7-10-9.7c-5.5,0-10,4.4-10,9.7
	C3.9,24.9,7.5,28.9,12.2,29.7z"/>
<g>
	<path fill="#255775" d="M42.9,11.3l-1.5,4.4h-1.9l4.8-14.1h2.2l4.8,14.1h-1.9l-1.5-4.4H42.9z M47.5,9.8l-1.4-4.1
		c-0.3-0.9-0.5-1.8-0.7-2.6h0c-0.2,0.8-0.4,1.7-0.7,2.6l-1.4,4.1H47.5z"/>
	<path fill="#255775" d="M54.3,2.7v2.9h2.6V7h-2.6v5.5c0,1.3,0.4,2,1.4,2c0.5,0,0.8-0.1,1.1-0.1l0.1,1.4c-0.4,0.1-0.9,0.3-1.6,0.3
		c-0.9,0-1.5-0.3-2-0.8c-0.5-0.5-0.7-1.4-0.7-2.6V7h-1.6V5.6h1.6V3.1L54.3,2.7z"/>
	<path fill="#255775" d="M58.9,11c0,2.5,1.6,3.5,3.5,3.5c1.3,0,2.1-0.2,2.8-0.5l0.3,1.3c-0.6,0.3-1.8,0.6-3.4,0.6c-3.1,0-5-2-5-5.1
		c0-3.1,1.8-5.5,4.7-5.5c3.3,0,4.2,2.9,4.2,4.8c0,0.4,0,0.7-0.1,0.9H58.9z M64.2,9.6c0-1.2-0.5-3-2.6-3c-1.9,0-2.7,1.7-2.8,3H64.2z"
		/>
	<path fill="#255775" d="M67.3,8.3c0-1,0-1.9-0.1-2.7h1.6l0.1,1.7h0c0.5-1,1.7-1.9,3.3-1.9c1.4,0,3.6,0.8,3.6,4.3v6H74V9.9
		c0-1.6-0.6-3-2.3-3c-1.2,0-2.2,0.9-2.5,1.9c-0.1,0.2-0.1,0.5-0.1,0.9v6.1h-1.8V8.3z"/>
	<path fill="#255775" d="M86.5,0.8v12.2c0,0.9,0,1.9,0.1,2.6H85l-0.1-1.8h0c-0.6,1.1-1.8,2-3.4,2c-2.4,0-4.3-2.1-4.3-5.1
		c0-3.4,2.1-5.4,4.5-5.4c1.5,0,2.6,0.7,3.1,1.5h0v-6H86.5z M84.7,9.7c0-0.2,0-0.5-0.1-0.8c-0.3-1.2-1.3-2.1-2.7-2.1
		c-1.9,0-3,1.7-3,3.9c0,2,1,3.7,3,3.7c1.2,0,2.4-0.8,2.7-2.2c0.1-0.3,0.1-0.5,0.1-0.8V9.7z"/>
	<path fill="#255775" d="M90.6,2.7c0,0.6-0.4,1.1-1.2,1.1c-0.6,0-1.1-0.5-1.1-1.1c0-0.6,0.5-1.1,1.1-1.1C90.2,1.6,90.6,2.1,90.6,2.7
		z M88.6,15.7V5.6h1.8v10.1H88.6z"/>
	<path fill="#255775" d="M92.4,8.3c0-1,0-1.9-0.1-2.7h1.6L94,7.2h0.1c0.6-1,1.5-1.9,3.2-1.9c1.4,0,2.4,0.8,2.9,2h0
		c0.3-0.6,0.7-1,1.1-1.3c0.6-0.5,1.3-0.7,2.2-0.7c1.3,0,3.3,0.9,3.3,4.4v6H105V10c0-1.9-0.7-3.1-2.2-3.1c-1,0-1.9,0.8-2.2,1.7
		c-0.1,0.3-0.1,0.6-0.1,0.9v6.3h-1.8V9.6c0-1.6-0.7-2.8-2.1-2.8c-1.1,0-2,0.9-2.3,1.8c-0.1,0.3-0.1,0.6-0.1,0.9v6.1h-1.8V8.3z"/>
	<path fill="#255775" d="M109.8,11c0,2.5,1.6,3.5,3.5,3.5c1.3,0,2.1-0.2,2.8-0.5l0.3,1.3c-0.6,0.3-1.8,0.6-3.4,0.6c-3.1,0-5-2-5-5.1
		c0-3.1,1.8-5.5,4.7-5.5c3.3,0,4.2,2.9,4.2,4.8c0,0.4,0,0.7-0.1,0.9H109.8z M115.2,9.6c0-1.2-0.5-3-2.6-3c-1.9,0-2.7,1.7-2.8,3
		H115.2z"/>
	<path fill="#255775" d="M118.2,8.3c0-1,0-1.9-0.1-2.7h1.6l0.1,1.7h0c0.5-1,1.7-1.9,3.3-1.9c1.4,0,3.6,0.8,3.6,4.3v6H125V9.9
		c0-1.6-0.6-3-2.3-3c-1.2,0-2.2,0.9-2.5,1.9C120.1,9,120,9.3,120,9.6v6.1h-1.8V8.3z"/>
	<path fill="#255775" d="M130.9,2.7v2.9h2.6V7h-2.6v5.5c0,1.3,0.4,2,1.4,2c0.5,0,0.8-0.1,1.1-0.1l0.1,1.4c-0.4,0.1-0.9,0.3-1.6,0.3
		c-0.9,0-1.5-0.3-2-0.8c-0.5-0.5-0.7-1.4-0.7-2.6V7h-1.6V5.6h1.6V3.1L130.9,2.7z"/>
	<path fill="#255775" d="M143.6,10.5c0,3.7-2.6,5.4-5,5.4c-2.7,0-4.8-2-4.8-5.2c0-3.4,2.2-5.4,5-5.4C141.6,5.3,143.6,7.5,143.6,10.5
		z M135.6,10.6c0,2.2,1.3,3.9,3.1,3.9c1.8,0,3.1-1.7,3.1-3.9c0-1.7-0.9-3.9-3-3.9C136.5,6.7,135.6,8.7,135.6,10.6z"/>
</g>
<g>
	<path fill="#F1B96B" d="M61.1,34.4c0,8.3-5,12.6-11.1,12.6c-6.3,0-10.8-4.9-10.8-12.2c0-7.6,4.7-12.6,11.1-12.6
		C56.8,22.2,61.1,27.2,61.1,34.4z M42.4,34.8c0,5.1,2.8,9.7,7.7,9.7c4.9,0,7.7-4.5,7.7-10c0-4.8-2.5-9.8-7.7-9.8
		C45,24.7,42.4,29.5,42.4,34.8z"/>
	<path fill="#F1B96B" d="M63.3,46.6v-24h3.4l7.7,12.1c1.8,2.8,3.2,5.3,4.3,7.8l0.1,0c-0.3-3.2-0.4-6.1-0.4-9.9v-10h2.9v24h-3.1
		l-7.6-12.2c-1.7-2.7-3.3-5.4-4.5-8l-0.1,0c0.2,3,0.2,5.9,0.2,9.9v10.3H63.3z"/>
	<path fill="#F1B96B" d="M85,22.6h3.1V44h10.3v2.6H85V22.6z"/>
	<path fill="#F1B96B" d="M103.1,22.6v24H100v-24H103.1z"/>
	<path fill="#F1B96B" d="M106.7,46.6v-24h3.4l7.7,12.1c1.8,2.8,3.2,5.3,4.3,7.8l0.1,0c-0.3-3.2-0.4-6.1-0.4-9.9v-10h2.9v24h-3.1
		L114,34.4c-1.7-2.7-3.3-5.4-4.5-8l-0.1,0c0.2,3,0.2,5.9,0.2,9.9v10.3H106.7z"/>
	<path fill="#F1B96B" d="M140.8,35.4h-9.3V44h10.4v2.6h-13.5v-24h13v2.6h-9.9v7.6h9.3V35.4z"/>
</g>
<path fill="none" stroke="#FFFFFF" stroke-miterlimit="10" d="M36.7,2.9c-14.1,0-20.1-0.2-21.5,0.2c-1.3,0.4-1.7,1.2-2.3,2
	c-0.7,1-0.6,2.3-0.6,2.3"/>
<path fill="none" stroke="#FFFFFF" stroke-miterlimit="10" d="M36.6,45c-14.1,0-20.1,0.2-21.5-0.2c-1.3-0.4-1.7-1.2-2.3-2
	c-0.7-1-0.6-2.3-0.6-2.3"/>
</svg>