<?xml version="1.0" encoding="utf-8"?>
<!-- Generator: Adobe Illustrator 18.0.0, SVG Export Plug-In . SVG Version: 6.00 Build 0)  -->
<!DOCTYPE svg PUBLIC "-//W3C//DTD SVG 1.1//EN" "http://www.w3.org/Graphics/SVG/1.1/DTD/svg11.dtd">
<svg version="1.1" id="Camada_1" xmlns="http://www.w3.org/2000/svg" xmlns:xlink="http://www.w3.org/1999/xlink" x="0px" y="0px"
	 viewBox="0 0 29 31" enable-background="new 0 0 29 31" xml:space="preserve">
<path fill-rule="evenodd" clip-rule="evenodd" fill="#F6A333" d="M2.9,5.8h17.4c1.6,0,2.9,1.3,2.9,2.9v19.4c0,1.6-1.3,2.9-2.9,2.9
	H2.9C1.3,31,0,29.7,0,28.1V8.7C0,7.1,1.3,5.8,2.9,5.8z"/>
<path fill-rule="evenodd" clip-rule="evenodd" fill="#FFFFFF" d="M3.9,7.7h15.5c1.1,0,1.9,0.9,1.9,1.9v17.4c0,1.1-0.9,1.9-1.9,1.9
	H3.9c-1.1,0-1.9-0.9-1.9-1.9V9.7C1.9,8.6,2.8,7.7,3.9,7.7z"/>
<path fill="#F6A333" d="M26.1,0H8.7C7.1,0,5.8,1.3,5.8,2.9v1h1.9c0-1.1,0.9-1.9,1.9-1.9h15.5c1.1,0,1.9,0.9,1.9,1.9v17.4
	c0,1.1-0.9,1.9-1.9,1.9v1.9h1c1.6,0,2.9-1.3,2.9-2.9V2.9C29,1.3,27.7,0,26.1,0z"/>
<path fill="#F6A333" d="M26.1,0H8.7C7.1,0,5.8,1.3,5.8,2.9v1h1.9c0-1.1,0.9-1.9,1.9-1.9h15.5c1.1,0,1.9,0.9,1.9,1.9v17.4
	c0,1.1-0.9,1.9-1.9,1.9v1.9h1c1.6,0,2.9-1.3,2.9-2.9V2.9C29,1.3,27.7,0,26.1,0z"/>
</svg>
