<?xml version="1.0" encoding="utf-8"?>
<!-- Generator: Adobe Illustrator 18.0.0, SVG Export Plug-In . SVG Version: 6.00 Build 0)  -->
<!DOCTYPE svg PUBLIC "-//W3C//DTD SVG 1.1//EN" "http://www.w3.org/Graphics/SVG/1.1/DTD/svg11.dtd">
<svg version="1.1" id="Camada_1" xmlns="http://www.w3.org/2000/svg" xmlns:xlink="http://www.w3.org/1999/xlink" x="0px" y="0px"
	 viewBox="0 0 39 39" enable-background="new 0 0 39 39" xml:space="preserve">
<path fill="#E5231E" d="M20.2,13.4c0-2.7-1.6-6.9-4.7-6.9c-1,0-2,0.5-2.6,1.2c-0.6,0.8-0.8,1.8-0.8,2.8c0,2.5,1.5,6.7,4.7,6.7
	c0.9,0,1.9-0.4,2.5-1C20.2,15.3,20.2,14.1,20.2,13.4z"/>
<path fill="#E5231E" d="M18.2,23.3c-0.3,0-0.5,0-0.9,0c-0.3,0-2.4,0.1-3.9,0.6c-0.8,0.3-3.2,1.2-3.2,3.9c0,2.7,2.6,4.6,6.6,4.6
	c3.6,0,5.5-1.7,5.5-4.1C22.3,26.3,21.1,25.3,18.2,23.3z"/>
<path fill="#E5231E" d="M19.5,0C8.7,0,0,8.7,0,19.5C0,30.3,8.7,39,19.5,39S39,30.3,39,19.5C39,8.7,30.3,0,19.5,0z M15,33.9
	c-5.4,0-8.1-2.6-8.1-5.4c0-1.4,0.7-3.3,2.9-4.6c2.3-1.4,5.5-1.6,7.2-1.7c-0.5-0.7-1.1-1.4-1.1-2.6c0-0.6,0.2-1,0.4-1.5
	c-0.4,0-0.8,0.1-1.2,0.1c-4,0-6.2-3-6.2-5.9c0-1.7,0.8-3.6,2.4-5c2.1-1.8,5.1-2.2,7.1-2.2h7.4l-2.4,1.5h-2.3
	c0.9,0.7,2.7,2.2,2.7,5.1c0,2.8-1.6,4.1-3.1,5.3c-0.5,0.5-1.1,1-1.1,1.8c0,0.8,0.6,1.3,1,1.6l1.3,1c1.6,1.4,3.1,2.7,3.1,5.3
	C24.8,30.3,21.4,33.9,15,33.9z M31.1,19v3.8h-1.9V19h-3.7v-1.9h3.7v-3.8h1.9v3.8h3.8V19H31.1z"/>
</svg>
