<?xml version="1.0" encoding="utf-8"?>
<!-- Generator: Adobe Illustrator 18.0.0, SVG Export Plug-In . SVG Version: 6.00 Build 0)  -->
<!DOCTYPE svg PUBLIC "-//W3C//DTD SVG 1.1//EN" "http://www.w3.org/Graphics/SVG/1.1/DTD/svg11.dtd">
<svg version="1.1" id="Camada_1" xmlns="http://www.w3.org/2000/svg" xmlns:xlink="http://www.w3.org/1999/xlink" x="0px" y="0px"
	 viewBox="0 0 52 52" enable-background="new 0 0 52 52" xml:space="preserve">
<circle fill="#FFFFFF" stroke="#245674" stroke-miterlimit="10" cx="26" cy="26" r="25.2"/>
<path fill="#F6A333" d="M26,11.1c-5.8,0-10.5,4.7-10.5,10.6c0,2.4,1.5,6.2,4.6,11.7c2.2,3.9,4.3,7.2,4.4,7.3l1.6,2.4l1.6-2.4
	c0.1-0.1,2.2-3.4,4.4-7.3c3.1-5.5,4.6-9.4,4.6-11.7C36.5,15.8,31.8,11.1,26,11.1z M26,27.1c-3,0-5.4-2.5-5.4-5.5s2.4-5.5,5.4-5.5
	c3,0,5.4,2.5,5.4,5.5S29,27.1,26,27.1z"/>
</svg>
