<?xml version="1.0" encoding="utf-8"?>
<!-- Generator: Adobe Illustrator 18.0.0, SVG Export Plug-In . SVG Version: 6.00 Build 0)  -->
<!DOCTYPE svg PUBLIC "-//W3C//DTD SVG 1.1//EN" "http://www.w3.org/Graphics/SVG/1.1/DTD/svg11.dtd">
<svg version="1.1" id="Camada_1" xmlns="http://www.w3.org/2000/svg" xmlns:xlink="http://www.w3.org/1999/xlink" x="0px" y="0px"
	 viewBox="0 0 51.9 51.8" enable-background="new 0 0 51.9 51.8" xml:space="preserve">
<circle fill="#FFFFFF" stroke="#245674" stroke-miterlimit="10" cx="25.9" cy="25.9" r="25.2"/>
<path fill="#245674" d="M31.2,26.5c0.4-1,0.3-2.9-2.2-4.5L29,22c0,0-0.1,0-0.2-0.1c-0.8-0.5-1.9-1.6-0.6-3.7l0.3-0.5l-2-1.2
	l-0.3,0.4c-0.1,0.1-1.4,1.6-1.1,3.6c0.2,1.3,1.1,2.5,2.6,3.5c0.1,0.1,0.6,0.4,0.7,0.9c-1.6-0.6-3.2-0.7-4.8-0.3
	c-0.8,0.2-1.7,0.5-2.4,1c-0.4,0.3-0.9,0.6-1.3,0.9c-0.5,0.5-1,1-1.4,1.6l-0.7,1l-0.7,1.1l-2.5,3.8c-1.5,2.3-1.6,4.9-0.8,7.3
	c0.6,1.6,1.7,3,3.3,4c3.9,2.4,9,1.3,11.5-2.5l2.5-3.8l0.7-1.1l0.7-1C34.6,33.5,34,29.2,31.2,26.5z M27.7,42.1
	c-2.1,3.3-6.6,4.3-9.9,2.2c-1.2-0.8-2.1-1.8-2.7-3.1c-0.9-2.1-0.8-4.6,0.5-6.7l2.2-3.4c0.6,0.9,1.3,1.7,2.1,2.5
	c0.4,0.4,0.8,0.7,1.3,1.1c0.5,0.4,1,0.8,1.6,1.1l0,0c0.3,0.2,0.6,0.3,0.8,0.5c2.4,1.3,4.8,2.1,6.4,2.4L27.7,42.1z M31.5,36.2
	l-0.9,1.3c-2.7-0.6-5-1.5-7.1-2.8c-0.1-0.1-0.2-0.1-0.3-0.2c-0.8-0.5-1.5-1-2.1-1.5c-0.5-0.4-0.9-0.8-1.3-1.2
	c-0.6-0.7-1.1-1.3-1.4-1.8l1-1.5c0.1-0.2,0.3-0.4,0.5-0.6c0.4-0.5,0.8-0.9,1.3-1.2c0.7-0.5,1.5-0.9,2.4-1.2c1.6-0.4,3.4-0.3,5,0.4
	l0.3,0.1l0.1,0.1c0,0,0.6,0.3,0.9,0.6c0.3,0.3,0.3,0.3,0.3,0.3C32.8,29.4,33.4,33.3,31.5,36.2z"/>
<path fill="#245674" d="M28.6,27.5c-0.9-0.6-2.1-0.3-2.6,0.6l-2,3c-0.6,0.9-0.3,2,0.6,2.6c0.9,0.6,2.1,0.3,2.6-0.6l2-3
	C29.8,29.2,29.5,28.1,28.6,27.5z"/>
<path fill="#245674" d="M27.1,5.4c-3.8,0-6.3,3-6.3,6.4c0,3.3,2.4,5.3,5.2,5.3c1.2,0,2.1-0.2,3.1-0.6l-0.3-0.9
	c-0.7,0.4-1.6,0.6-2.5,0.6c-2.5,0-4.3-1.7-4.3-4.5c0-3.3,2.3-5.4,5-5.4c2.7,0,4.1,1.7,4.1,4c0,1.9-0.9,3-1.7,2.9
	c-0.5,0-0.7-0.5-0.5-1.6l0.5-3.1c-0.4-0.2-1.2-0.4-1.9-0.4c-2.4,0-4,1.9-4,3.9c0,1.4,0.8,2.2,1.9,2.2c1,0,1.7-0.5,2.3-1.4h0
	c0,0.9,0.6,1.4,1.4,1.4c1.7,0,3.1-1.5,3.1-4C32.1,7.5,30,5.4,27.1,5.4z M27.5,11.1c-0.2,1-0.9,2-1.7,2c-0.7,0-1-0.5-1-1.1
	c0-1.4,1-2.7,2.3-2.7c0.3,0,0.5,0,0.7,0.1L27.5,11.1z"/>
</svg>
