<?xml version="1.0" encoding="utf-8"?>
<!-- Generator: Adobe Illustrator 18.0.0, SVG Export Plug-In . SVG Version: 6.00 Build 0)  -->
<!DOCTYPE svg PUBLIC "-//W3C//DTD SVG 1.1//EN" "http://www.w3.org/Graphics/SVG/1.1/DTD/svg11.dtd">
<svg version="1.1" id="Camada_1" xmlns="http://www.w3.org/2000/svg" xmlns:xlink="http://www.w3.org/1999/xlink" x="0px" y="0px"
	 viewBox="0 0 51.6 51.9" enable-background="new 0 0 51.6 51.9" xml:space="preserve">
<circle fill="#FFFFFF" stroke="#245674" stroke-miterlimit="10" cx="25.8" cy="25.9" r="25.2"/>
<path fill="#245674" d="M13.6,22.6c1.8,2.6,4.2,4.8,6.8,7c2.7,2.4,5.1,3.9,7.6,4.8c0.1,0.1,0.3,0.1,0.4,0c3,0.1,5.5-0.7,7.4-2.6
	c0.9,0.6,1.6,1.8,1.5,2.6c-0.1,0.5-0.5,0.8-1.3,1c-0.4,0.1-0.7,0.4-0.7,0.9c0,0.4,0.4,0.9,0.9,0.9l0,0c0.1,0,0.1,0,0.2,0
	c1.8-0.3,2.8-1.6,2.7-3.3c-0.1-1.3-0.9-2.6-2.1-3.4c0.1-0.1,0.2-0.3,0.3-0.4c0.2-0.3,0.2-0.7-0.1-1c0-0.2-0.1-0.3-0.3-0.4
	c-1.3-1.2-2.7-2.1-4.3-2.7c-0.2-0.1-0.4-0.1-0.6,0c-1.4,0.2-2.9,0.2-4.3-0.2c0,0,0,0,0,0c-2.8-1.8-5.2-4.1-7.3-6.7
	c0.6-1.1,1-2.3,1.2-3.6c0-0.2,0-0.4-0.1-0.6c0-0.1-0.1-0.2-0.2-0.3c-1.3-1.3-2.6-2.6-4.2-3.8c-0.1-0.1-0.3-0.2-0.4-0.2
	c-0.3-0.2-0.8-0.2-1.1,0.1c-3,2.9-4.7,8.1-2.3,11.6C13.5,22.5,13.5,22.6,13.6,22.6z M18.6,18.6c-0.1,0.2-0.1,0.4-0.1,0.6
	c-0.1,0.3,0,0.6,0.2,0.8c2.2,2.9,4.9,5.4,8.1,7.5c0.1,0,0.1,0.1,0.2,0.1c0.1,0.1,0.2,0.1,0.3,0.1c1.6,0.4,3.3,0.5,5.1,0.2
	c1.1,0.4,2.1,1.1,3.1,1.9c-1.5,2-3.7,3-6.4,3c-0.2,0-0.4,0-0.6,0c-2.8-1-5.1-2.9-7.2-4.7c-2-1.8-4.2-3.7-5.8-5.9
	c0-0.1-0.1-0.3-0.2-0.4c-2.2-2.5-1-6.5,1.3-9.1c1.2,0.9,2.2,2,3.3,3.1C19.5,16.7,19.1,17.7,18.6,18.6z"/>
<path fill="#245674" d="M38.5,36.7c-0.2,0-0.4,0.1-0.6,0.3c-0.8,1.1-1.6,1.2-2.6,0.5c-0.2-0.1-0.3-0.2-0.5-0.2
	c-0.4,0-0.7,0.3-0.8,0.7c-0.1,0.4,0,0.8,0.4,1.1c0.6,0.5,1.3,0.7,2,0.7c0,0,0,0,0,0c1,0,2-0.5,2.8-1.5c0.2-0.3,0.3-0.7,0.1-1
	C39.1,36.9,38.8,36.7,38.5,36.7z"/>
<path fill="#245674" d="M35.2,42.1c0.4,0,0.8-0.1,1.2-0.2c0.5-0.1,0.7-0.6,0.6-1c-0.1-0.4-0.4-0.8-0.8-0.8c-0.1,0-0.2,0-0.3,0
	c-0.9,0.2-1.6,0.1-2.2-0.6c-0.2-0.2-0.4-0.3-0.6-0.3c-0.4,0-0.7,0.2-0.9,0.6c-0.1,0.3-0.1,0.7,0.2,1C33.1,41.7,34.1,42.1,35.2,42.1
	L35.2,42.1z"/>
<path fill="#245674" d="M31,41.6C30,41.3,29.1,41,28.2,41c-1.1,0-2,0.4-2.8,1.1c-0.3,0.2-0.4,0.6-0.2,0.9c0.1,0.4,0.5,0.6,0.9,0.6
	c0.2,0,0.4-0.1,0.6-0.2c0.5-0.4,1.1-0.7,1.8-0.7c0.9,0,1.8,0.3,2.7,0.6c0.8,0.3,1.6,0.5,2.4,0.6c0,0,0,0,0.1,0l0,0
	c0.5,0,0.8-0.4,0.8-0.8c0-0.5-0.3-1-0.9-1C32.7,42.1,31.8,41.8,31,41.6z"/>
</svg>
