<?xml version="1.0" encoding="utf-8"?>
<!-- Generator: Adobe Illustrator 18.0.0, SVG Export Plug-In . SVG Version: 6.00 Build 0)  -->
<!DOCTYPE svg PUBLIC "-//W3C//DTD SVG 1.1//EN" "http://www.w3.org/Graphics/SVG/1.1/DTD/svg11.dtd">
<svg version="1.1" id="Camada_1" xmlns="http://www.w3.org/2000/svg" xmlns:xlink="http://www.w3.org/1999/xlink" x="0px" y="0px"
	 viewBox="0 0 548.9 153.8" enable-background="new 0 0 548.9 153.8" xml:space="preserve">
<g>
	<path fill-rule="evenodd" clip-rule="evenodd" fill="#BA7E2C" d="M41.3,30.3c-2.4,2.3-4.6,4.7-6.7,7.4l0,0c-0.7,0.9-1.4,1.8-2,2.8
		l0,0c-1.7,2.5-3.4,5-5,7.6l0,0c-0.8,1.3-1.5,2.6-2.3,3.9l0,0c-1.8,3.4-3.5,6.9-4.8,10.5l0,0c-0.4,1.2-0.8,2.5-1.2,3.7l0,0
		c-0.5,2-1,4.1-1.4,6.2l0,0c-0.4,2.1-0.6,4.2-0.8,6.3l0,0c-0.1,1.8-0.2,3.6-0.2,5.4l0,0c0,0.9,0.1,1.8,0.1,2.7l0,0
		c0.3,3.8,1,7.6,2.2,11.2l0,0c0.2,0.7,0.5,1.4,0.8,2.1l0,0c1.9,4.8,5.4,8.9,9.5,12c-4.4-4.5-7.2-10.4-7.8-16.7l0,0
		c-0.1-1-0.2-2-0.2-3.1l0,0c-0.1-3.1,0-6.2,0.4-9.2l0,0c0.1-1,0.3-2.1,0.4-3.1l0,0c0.9-5.2,2.7-10.2,5.4-14.8l0,0
		c1.2-2.5,2.5-5,3.9-7.3l0,0c1.4-2.4,2.9-4.7,4.4-7l0,0c3-4.5,6.3-8.5,10-12l0,0l-4.4-9C41.6,30,41.5,30.1,41.3,30.3L41.3,30.3
		L41.3,30.3z M50.9,49c-1.7,1.6-3.3,3.3-4.8,5l0,0c-1.6,1.7-3.1,3.5-4.5,5.4l0,0c-1,1.2-1.9,2.4-2.8,3.6l0,0
		c-0.9,1.2-1.7,2.5-2.5,3.8l0,0c-3.2,5.5-5.5,11.8-6.7,18.3l0,0c-0.2,1.1-0.4,2.2-0.5,3.3l0,0c-0.1,1.1-0.3,2.2-0.3,3.3l0,0
		c-0.6,10,0.1,20.6,5.1,29.4l0,0c0.5,0.9,1.1,1.8,1.7,2.7l0,0c3,4.3,7.1,7.9,12,10.2l0,0c0.9,0.5,1.7,0.9,2.6,1.3l0,0
		c-0.9-0.4-1.7-0.9-2.6-1.4l0,0c-4.7-2.5-8.7-6.2-11.6-10.6l0,0c-0.6-0.9-1.1-1.8-1.6-2.7l0,0c-4.9-9.3-4.6-20.3-2.3-30.3l0,0
		c0.2-1,0.5-2,0.8-3l0,0c0.3-1,0.6-1.9,1-2.9l0,0c2.1-5.7,5.2-11.1,9.2-15.7l0,0c1.7-2.1,3.6-4,5.6-5.9l0,0c2-1.9,4-3.6,6.2-5.2l0,0
		c1.9-1.6,3.8-3.1,5.8-4.5l-3.3-9.4C55.1,45.4,53,47.2,50.9,49L50.9,49L50.9,49z"/>
	<path fill="#575756" d="M215.5,145.2v-16.9h2.5l6,14.7l6-14.7h2.5v16.9H231v-14.9l-6.1,14.9h-1.5l-6.1-14.9v14.9H215.5L215.5,145.2
		z M235.4,132.5h1.7v6.8c0,1.7,0.3,3,0.9,3.7c0.6,0.7,1.5,1.1,2.9,1.1c0.8,0,1.4-0.2,2-0.4c0.6-0.3,1-0.7,1.4-1.3
		c0.2-0.3,0.3-0.7,0.4-1.2c0.1-0.5,0.1-1.2,0.1-2.4v-6.3h1.7v12.7h-1.7v-1.4c-0.5,0.6-1.1,1-1.7,1.3c-0.6,0.3-1.4,0.4-2.3,0.4
		c-1.9,0-3.3-0.5-4.1-1.5c-0.8-1-1.3-2.6-1.3-4.9V132.5L235.4,132.5z M249.1,145.2v-16.9h1.7v16.9H249.1L249.1,145.2z M254.7,145.2
		v-11.1h-2.5v-1.6h2.5v-4.1h1.7v4.1h2.5v1.6h-2.5v11.1H254.7L254.7,145.2z M262,131h-1.7v-2.6h1.7V131L262,131z M260.3,145.2v-12.7
		h1.7v12.7H260.3L260.3,145.2z M285.8,132.7c-0.8-1-1.7-1.8-2.6-2.3c-1-0.5-2.1-0.7-3.3-0.7c-1.9,0-3.6,0.7-5,2.1
		c-1.4,1.4-2.1,3-2.1,5c0,2,0.7,3.8,2.1,5.2c1.4,1.4,3,2.1,5,2.1c1.2,0,2.3-0.2,3.3-0.7c1-0.5,1.8-1.2,2.5-2.2h2
		c-0.8,1.4-1.9,2.5-3.2,3.3c-1.3,0.8-2.8,1.2-4.5,1.2c-2.6,0-4.7-0.8-6.4-2.5c-1.7-1.7-2.6-3.8-2.6-6.3c0-1.2,0.2-2.3,0.7-3.4
		c0.5-1.1,1.1-2,2-2.9c0.8-0.8,1.8-1.4,2.8-1.8c1-0.4,2.2-0.6,3.4-0.6c1.7,0,3.3,0.4,4.7,1.2c1.4,0.8,2.5,2,3.3,3.5H285.8
		L285.8,132.7z M290.1,145.2v-16.9h1.7v16.9H290.1L290.1,145.2z M294.5,132.5h1.7v6.8c0,1.7,0.3,3,0.9,3.7c0.6,0.7,1.5,1.1,2.9,1.1
		c0.8,0,1.4-0.2,2-0.4c0.6-0.3,1-0.7,1.4-1.3c0.2-0.3,0.3-0.7,0.4-1.2c0.1-0.5,0.1-1.2,0.1-2.4v-6.3h1.7v12.7h-1.7v-1.4
		c-0.5,0.6-1.1,1-1.7,1.3c-0.6,0.3-1.4,0.4-2.3,0.4c-1.9,0-3.3-0.5-4.1-1.5c-0.8-1-1.3-2.6-1.3-4.9V132.5L294.5,132.5z M309.8,128.4
		v5.3v0.9c0.7-0.8,1.5-1.4,2.3-1.8c0.8-0.4,1.8-0.6,2.8-0.6c1.9,0,3.4,0.6,4.7,1.9c1.3,1.3,1.9,2.9,1.9,4.7c0,1.9-0.7,3.5-2,4.8
		c-1.3,1.3-3,1.9-4.9,1.9c-1,0-1.9-0.2-2.7-0.6c-0.8-0.4-1.6-0.9-2.2-1.7v1.9h-1.7v-16.9H309.8L309.8,128.4z M309.8,139
		c0,1.4,0.5,2.5,1.5,3.5c1,1,2.1,1.5,3.4,1.5c1.4,0,2.6-0.5,3.6-1.5c1-1,1.5-2.3,1.5-3.8c0-1.4-0.5-2.6-1.5-3.6
		c-1-1-2.2-1.5-3.6-1.5c-1.4,0-2.6,0.5-3.5,1.5C310.3,136.3,309.8,137.5,309.8,139L309.8,139z M336.6,139.4h-11.9
		c0.1,1.4,0.6,2.5,1.6,3.4c0.9,0.9,2.1,1.3,3.5,1.3c1,0,1.9-0.2,2.7-0.7c0.8-0.5,1.4-1.2,1.8-2.1h1.9c-0.6,1.4-1.5,2.5-2.6,3.2
		c-1.1,0.8-2.4,1.1-3.8,1.1c-1.9,0-3.5-0.7-4.9-2c-1.3-1.3-2-2.9-2-4.8c0-1.9,0.7-3.5,1.9-4.8c1.3-1.3,3-1.9,5-1.9
		c2,0,3.6,0.7,4.8,2c1.3,1.3,1.9,3,1.9,5.1V139.4L336.6,139.4z M334.8,138c-0.3-1.4-0.9-2.5-1.8-3.2c-0.9-0.7-2-1.1-3.3-1.1
		c-1.3,0-2.4,0.4-3.2,1.2c-0.9,0.8-1.4,1.8-1.6,3.1H334.8L334.8,138z M356.6,139c0-1.5-0.5-2.7-1.5-3.7c-1-1-2.2-1.5-3.5-1.5
		c-1.4,0-2.6,0.5-3.6,1.5c-1,1-1.5,2.2-1.5,3.6c0,1.5,0.5,2.7,1.5,3.8c1,1,2.2,1.5,3.6,1.5c1.3,0,2.5-0.5,3.5-1.5
		C356.1,141.5,356.6,140.3,356.6,139L356.6,139z M356.6,134.5v-2.8v-3.3h1.7v16.9h-1.7v-1.9c-0.6,0.7-1.3,1.3-2.2,1.7
		c-0.9,0.4-1.8,0.6-2.8,0.6c-1.9,0-3.5-0.6-4.8-1.9c-1.3-1.3-2-2.9-2-4.8c0-1.9,0.6-3.4,1.9-4.7c1.3-1.3,2.9-1.9,4.8-1.9
		c1,0,2,0.2,2.8,0.6C355.3,133.2,356,133.8,356.6,134.5L356.6,134.5z M373.9,139.4H362c0.1,1.4,0.6,2.5,1.6,3.4
		c0.9,0.9,2.1,1.3,3.5,1.3c1,0,1.9-0.2,2.7-0.7c0.8-0.5,1.4-1.2,1.8-2.1h1.9c-0.6,1.4-1.5,2.5-2.6,3.2c-1.1,0.8-2.4,1.1-3.8,1.1
		c-1.9,0-3.5-0.7-4.9-2c-1.3-1.3-2-2.9-2-4.8c0-1.9,0.7-3.5,1.9-4.8c1.3-1.3,3-1.9,5-1.9c2,0,3.6,0.7,4.8,2c1.3,1.3,1.9,3,1.9,5.1
		V139.4L373.9,139.4z M372,138c-0.3-1.4-0.9-2.5-1.8-3.2c-0.9-0.7-2-1.1-3.3-1.1c-1.3,0-2.4,0.4-3.2,1.2c-0.9,0.8-1.4,1.8-1.6,3.1
		H372L372,138z M384.7,137.3v6.4h2.4c1.4,0,2.5-0.3,3.1-0.8c0.7-0.5,1-1.3,1-2.4c0-1.1-0.3-1.9-1-2.4c-0.7-0.5-1.7-0.8-3.1-0.8
		H384.7L384.7,137.3z M384.7,130v5.7h1c1.7,0,2.9-0.2,3.6-0.7c0.7-0.5,1-1.2,1-2.2c0-1-0.3-1.7-1-2.1c-0.7-0.4-1.7-0.7-3.1-0.7
		H384.7L384.7,130z M383,128.4h3.2c2,0,3.4,0.4,4.4,1.1c0.9,0.7,1.4,1.8,1.4,3.4c0,0.8-0.2,1.4-0.5,2c-0.3,0.5-0.8,1-1.4,1.3
		c0.9,0.4,1.6,0.9,2.1,1.6c0.5,0.7,0.7,1.5,0.7,2.5c0,1.7-0.5,3-1.5,3.8c-1,0.8-2.5,1.2-4.6,1.2H383V128.4L383,128.4z M408.2,139.4
		h-11.9c0.1,1.4,0.6,2.5,1.6,3.4c0.9,0.9,2.1,1.3,3.5,1.3c1,0,1.9-0.2,2.7-0.7c0.8-0.5,1.4-1.2,1.8-2.1h1.9
		c-0.6,1.4-1.5,2.5-2.6,3.2c-1.1,0.8-2.4,1.1-3.8,1.1c-1.9,0-3.5-0.7-4.9-2c-1.3-1.3-2-2.9-2-4.8c0-1.9,0.6-3.5,1.9-4.8
		c1.3-1.3,3-1.9,5-1.9c2,0,3.6,0.7,4.8,2c1.3,1.3,1.9,3,1.9,5.1V139.4L408.2,139.4z M406.3,138c-0.3-1.4-0.9-2.5-1.8-3.2
		c-0.9-0.7-2-1.1-3.3-1.1c-1.3,0-2.4,0.4-3.2,1.2c-0.9,0.8-1.4,1.8-1.6,3.1H406.3L406.3,138z M410.1,132.5h1.6v1.5
		c0.5-0.6,1.1-1,1.8-1.3c0.7-0.3,1.5-0.4,2.3-0.4c1,0,1.8,0.2,2.6,0.5c0.8,0.3,1.4,0.8,1.8,1.5c0.3,0.5,0.5,1,0.7,1.6
		c0.1,0.6,0.2,1.5,0.2,2.7v6.7h-1.7v-7.1c0-1.5-0.3-2.6-0.9-3.3c-0.6-0.7-1.6-1-2.9-1c-0.8,0-1.4,0.1-2,0.4c-0.6,0.3-1,0.7-1.4,1.3
		c-0.2,0.3-0.4,0.7-0.4,1.2c-0.1,0.4-0.1,1.2-0.1,2.3v6.2h-1.6V132.5L410.1,132.5z M436.7,139.4h-11.9c0.1,1.4,0.6,2.5,1.6,3.4
		c0.9,0.9,2.1,1.3,3.5,1.3c1,0,1.9-0.2,2.7-0.7c0.8-0.5,1.4-1.2,1.8-2.1h1.9c-0.6,1.4-1.5,2.5-2.6,3.2c-1.1,0.8-2.4,1.1-3.8,1.1
		c-1.9,0-3.5-0.7-4.9-2c-1.3-1.3-2-2.9-2-4.8c0-1.9,0.7-3.5,1.9-4.8c1.3-1.3,3-1.9,5-1.9c2,0,3.6,0.7,4.8,2c1.3,1.3,1.9,3,1.9,5.1
		V139.4L436.7,139.4z M434.9,138c-0.3-1.4-0.9-2.5-1.8-3.2c-0.9-0.7-2-1.1-3.3-1.1c-1.3,0-2.4,0.4-3.2,1.2c-0.9,0.8-1.4,1.8-1.6,3.1
		H434.9L434.9,138z M441,145.2h-1.6v-11.3h-1.8v-1.4h1.7v-0.3c0-1.3,0.4-2.3,1.1-3c0.7-0.6,1.8-1,3.3-1h0.2v1.5
		c-1,0-1.7,0.2-2.2,0.6c-0.4,0.4-0.6,1-0.6,1.9v0.3h2.8v1.4H441V145.2L441,145.2z M445.5,145.2v-12.7h1.7v12.7H445.5L445.5,145.2z
		 M445.9,130.8h-1.1l2.5-4.1h1.8L445.9,130.8L445.9,130.8z M460.4,136.4c-0.5-0.9-1.2-1.6-1.9-2.1c-0.7-0.4-1.6-0.7-2.7-0.7
		c-1.4,0-2.5,0.5-3.5,1.5c-0.9,1-1.4,2.2-1.4,3.7s0.5,2.7,1.4,3.7c0.9,1,2.1,1.5,3.5,1.5c1,0,1.9-0.2,2.7-0.7c0.8-0.5,1.4-1.2,1.8-2
		h1.9c-0.5,1.4-1.3,2.5-2.4,3.2c-1.1,0.8-2.4,1.1-3.9,1.1c-1.9,0-3.5-0.7-4.8-2c-1.3-1.3-2-2.9-2-4.7c0-1.9,0.7-3.5,2-4.8
		c1.3-1.3,2.9-2,4.9-2c1.4,0,2.7,0.4,3.8,1.1c1.1,0.7,1.9,1.8,2.5,3.1H460.4L460.4,136.4z M466.5,131h-1.7v-2.6h1.7V131L466.5,131z
		 M464.8,145.2v-12.7h1.7v12.7H464.8L464.8,145.2z M470.3,138.9c0,1.5,0.5,2.7,1.4,3.7c1,1,2.2,1.5,3.6,1.5c1.4,0,2.6-0.5,3.6-1.5
		c1-1,1.4-2.2,1.4-3.7c0-1.5-0.5-2.7-1.5-3.7c-1-1-2.2-1.5-3.7-1.5c-1.3,0-2.5,0.5-3.5,1.5C470.7,136.2,470.3,137.4,470.3,138.9
		L470.3,138.9z M468.5,138.9c0-1.9,0.7-3.5,2-4.8c1.3-1.3,2.9-2,4.7-2c1.9,0,3.5,0.7,4.9,2c1.3,1.3,2,2.9,2,4.7c0,1.9-0.7,3.5-2,4.9
		c-1.3,1.3-2.9,2-4.8,2c-1.9,0-3.5-0.7-4.8-2C469.1,142.3,468.5,140.7,468.5,138.9L468.5,138.9z M483.2,141.2h1.7v0
		c0,0.8,0.2,1.5,0.7,2c0.5,0.5,1.1,0.8,1.8,0.8c0.7,0,1.2-0.2,1.7-0.6c0.4-0.4,0.7-0.9,0.7-1.5c0-0.6-0.2-1.1-0.5-1.5
		c-0.3-0.4-1-0.7-1.9-1c-1.5-0.5-2.4-1-2.9-1.5c-0.4-0.5-0.7-1.2-0.7-2.1c0-1,0.4-1.8,1.1-2.5c0.7-0.7,1.7-1,2.7-1
		c1.1,0,2,0.3,2.7,0.9c0.7,0.6,1,1.5,1.1,2.6h-1.8c0-0.6-0.2-1.1-0.6-1.4c-0.4-0.3-0.8-0.5-1.5-0.5c-0.6,0-1,0.2-1.4,0.5
		c-0.4,0.4-0.6,0.8-0.6,1.3c0,0.4,0.1,0.7,0.2,1c0.2,0.3,0.4,0.5,0.8,0.7c0.3,0.2,0.8,0.4,1.4,0.6c0.6,0.2,1,0.3,1.2,0.4
		c0.8,0.3,1.4,0.8,1.8,1.4c0.4,0.6,0.6,1.3,0.6,2.2c0,1.1-0.4,2-1.2,2.7c-0.8,0.7-1.8,1.1-3,1.1c-1.2,0-2.2-0.4-3-1.2
		C483.7,143.6,483.3,142.6,483.2,141.2L483.2,141.2z"/>
	<path fill="#F9A431" d="M163.7,119.8V89.4V74.1c-0.8-10.2,1.3-15.3,6.2-15.2h27.6v13.6h-18.9V82h14.6v13.6h-14.6v10.4h18.9v13.6
		H163.7L163.7,119.8z M253.6,95.7c0,4.2-0.4,7.5-1.1,10c-0.9,3.3-2.6,6.2-5,8.6c-4.3,4.4-10,6.6-17,6.6c-3.4,0-6.5-0.5-9.5-1.5
		c-3.3-1.1-6-2.8-8.1-5c-2.6-2.7-4.3-5.6-5.1-8.6c-0.4-1.4-0.7-3-0.8-4.8c-0.1-1.4-0.2-3.2-0.2-5.3V58.9h15.5v36.7
		c0,1.6,0.1,3,0.2,4.1c0.2,1.5,0.6,2.7,1.1,3.8c1.3,2.5,3.5,3.7,6.6,3.7c3.3,0,5.5-1.2,6.6-3.6c0.5-1,0.8-2.2,1-3.7
		c0.1-1.1,0.2-2.5,0.2-4.3V58.9h15.5V95.7L253.6,95.7z M299.8,119.8c-4,0.3-7.3-1.3-9.8-4.9l-3.5-4.9l-7.1-9.8h-0.2v19.6h-14.9V89.4
		V74.1c0-9.6,3.3-14.7,9.9-15.2h9.4c2,0,3.7,0,4.9,0.1c1.8,0.1,3.4,0.3,4.8,0.5c3.6,0.7,6.6,1.9,9,3.8c5,4,7.5,9.5,7.5,16.6
		c0,4.8-1.3,9-3.9,12.5c-2.8,3.7-6.5,5.9-11.2,6.7l16.5,20.7H299.8L299.8,119.8z M295.1,80.8c0-2.8-1-4.9-3-6.3
		c-1.8-1.3-4.1-1.9-7-1.9h-5.7v16.9h5.5C291.7,89.5,295.1,86.6,295.1,80.8L295.1,80.8z M379.7,89.4c0,8.9-3.2,16.4-9.5,22.5
		c-6.2,6-13.8,9-22.8,9c-8.7,0-16.2-3-22.4-8.9c-6.4-6-9.5-13.3-9.5-21.9c0-4.6,0.8-8.9,2.4-13c0.8-2.2,2.1-4.5,3.9-6.8
		c6.4-8.3,14.9-12.5,25.7-12.5c8.9,0,16.5,3,22.8,9C376.6,73,379.7,80.5,379.7,89.4L379.7,89.4z M365.5,89.6c0-4.9-1.5-9.1-4.5-12.6
		c-3.2-3.6-7.7-5.4-13.5-5.4c-5.8,0-10.3,1.8-13.4,5.3c-3.1,3.5-4.6,7.6-4.6,12.5c0,5,1.5,9.2,4.6,12.7c3.2,3.6,7.7,5.4,13.5,5.4
		c5.8,0,10.3-1.8,13.4-5.4C364,98.6,365.5,94.4,365.5,89.6L365.5,89.6z M432.9,101.3c0,5.6-1.9,10.1-5.6,13.2
		c-2.8,2.4-5.9,3.9-9.3,4.6c-1.5,0.3-3.2,0.5-5,0.6c-0.8,0.1-1.7,0.1-2.7,0.1h-22.2V89.4l0.1-16.4c-0.9-10,3-14.7,11.8-14.1l6.8,0.2
		c2.4,0,4.2,0,5.4,0.1c1.9,0.1,3.6,0.3,5.1,0.7c3.6,0.8,6.6,2.5,9,5.2c2.4,2.6,3.6,6,3.6,10c0,5.5-2.4,9.6-7.1,12.2
		C429.5,89.4,432.9,94.1,432.9,101.3L432.9,101.3z M415.1,77.2c0-1.8-0.6-3-1.8-3.8c-1-0.5-2.4-0.8-4.3-0.8h-6V82h5.9
		C413,82,415.1,80.4,415.1,77.2L415.1,77.2z M418,100.3c0-2-0.7-3.4-2.2-4.3c-1.2-0.7-2.9-1-5-1H403v11.1h7.7c2.2,0,3.9-0.4,5.1-1.2
		C417.3,103.9,418,102.4,418,100.3L418,100.3z M441.3,119.8V89.4V74.1c-0.8-10.2,1.3-15.3,6.2-15.2h27.6v13.6h-18.9V82h14.6v13.6
		h-14.6v10.4h18.9v13.6H441.3L441.3,119.8z M534.6,119.8l0.5-45.5l-0.2-0.2l-13,45.7h-10.3l-13-45.7l-0.2,0.2l0.5,45.5h-14.3V89.4
		V74.1c-0.5-9.9,2-15,7.6-15.2h12.4l12.1,40h0.2l11.9-40h20.1v60.8H534.6L534.6,119.8z"/>
	<polygon fill-rule="evenodd" clip-rule="evenodd" fill="#235674" points="0,58.9 61.8,58.9 80.6,0 99.8,58.8 161.6,58.5 
		111.6,94.8 131,153.5 80.9,117.2 31.1,153.8 50.2,95 0,58.9 	"/>
	<path fill-rule="evenodd" clip-rule="evenodd" fill="#F9A431" d="M156.3,84.2c-1,1.2-2,2.4-3,3.6l0,0c-1,1.2-2.1,2.4-3.1,3.5l0,0
		c-2.1,2.4-4.3,4.7-6.5,7l0,0c-1.1,1.1-2.2,2.3-3.4,3.4l0,0c-1.1,1.1-2.3,2.3-3.4,3.4l0,0c-1.1,1-2.1,1.9-3.1,2.8l0,0
		c-1.1,1-2.3,2-3.4,2.9l0,0c-1.2,0.9-2.3,1.9-3.6,2.8l0,0c-5.4,3.9-11.1,7.3-17.2,10.1l0,0c-1.5,0.7-3,1.4-4.6,2l0,0
		c-5.7,2.4-11.7,4.6-17.9,6.3l0,0c-2.1,0.6-4.1,1.1-6.2,1.6l0,0c-2,0.5-4,0.8-6.1,1.1l0,0c-2.1,0.3-4.1,0.4-6.2,0.5l0,0
		c-2,0.1-4.1,0-6.2-0.1l0,0c-2.1-0.1-4.2-0.4-6.2-0.8l0,0c-8.1-1.4-16-5.3-21.4-11.6l0,0c5.2,8,13.8,13.4,23,15.7l0,0
		c2.3,0.6,4.7,1.1,7,1.5l0,0c2.4,0.4,4.7,0.6,7.1,0.7l0,0c2.4,0.1,4.8,0.1,7.2,0l0,0c2.4-0.1,4.7-0.3,7.1-0.6l0,0
		c1.9-0.2,3.7-0.5,5.5-0.7l0,0c1.8-0.3,3.6-0.6,5.4-1l0,0c2.1-0.4,4.1-0.9,6.2-1.5l0,0c1.4-0.4,2.7-0.8,4.1-1.2l0,0
		c3.7-1.2,7.2-2.5,10.7-4.2l0,0c0.4-0.2,0.9-0.4,1.3-0.6l0,0c0.4-0.2,0.9-0.4,1.3-0.6l0,0c1.2-0.6,2.3-1.2,3.5-1.8l0,0
		c1.2-0.6,2.4-1.2,3.6-1.7l0,0c1.5,5.3,2.9,10.5,5.3,15.5c1.7-15.2,8.7-29,15.3-42.6l0,0c0.7-1.4,1.4-2.7,2.1-4l0,0
		c0.6-1.1,1.1-2.1,1.7-3.2l0,0c1.2-2.1,2.4-4.2,3.6-6.3l0,0c0.9-1.6,1.9-3.2,2.8-4.7C157.8,82.4,157.1,83.3,156.3,84.2L156.3,84.2
		L156.3,84.2z M107.4,95.3c-1.8,0-3.6,0-5.4,0l0,0c-1.8-0.1-3.6-0.2-5.4-0.4l0,0c4.5,2.7,8.4,6.2,12.5,9.5l0,0
		c-1.8,1.1-3.7,2-5.6,2.8l0,0c-1.9,0.9-3.8,1.7-5.8,2.4l0,0c-6,2.3-12.4,3.9-18.7,4.8l0,0c-1.5,0.2-3,0.4-4.5,0.6l0,0
		c-2.3,0.2-4.6,0.5-6.9,0.6l0,0c-0.8,0-1.5,0.1-2.3,0.1l0,0c-4.7,0.1-9.4,0.1-14.1-0.4l0,0c-1-0.1-1.9-0.2-2.9-0.4l0,0
		c-1.4-0.2-2.9-0.5-4.3-0.8l0,0c-1.4-0.3-2.8-0.6-4.2-1l0,0c-6.4-1.9-13.2-4.4-17.6-9.7c2.3,4.7,6,8.6,10,11.8l0,0
		c1.1,0.9,2.3,1.7,3.5,2.4l0,0c1.2,0.7,2.5,1.4,3.8,1.9l0,0c0.8,0.3,1.6,0.6,2.4,0.9l0,0c1.1,0.4,2.2,0.7,3.3,1l0,0
		c5.4,1.4,10.9,2,16.5,2.3l0,0c1.2,0,2.4,0.1,3.6,0.1l0,0c2.3,0,4.6-0.1,6.9-0.3l0,0c1.1-0.1,2.3-0.2,3.4-0.4l0,0
		c8.7-1.2,17.3-3.4,25.6-6.2l0,0c1.7-0.6,3.3-1.2,5-1.8l0,0c3.8-1.5,7.6-3.2,11.2-5.1l0,0c1.8-0.9,3.6-1.9,5.4-2.9l0,0
		c2.2-1.3,4.4-2.6,6.6-3.9l0,0c11.2-7,21.9-14.9,30.6-24.9C144.9,89.7,125.9,94.6,107.4,95.3L107.4,95.3L107.4,95.3z"/>
</g>
</svg>
