<?xml version="1.0" encoding="utf-8"?>
<!-- Generator: Adobe Illustrator 18.0.0, SVG Export Plug-In . SVG Version: 6.00 Build 0)  -->
<!DOCTYPE svg PUBLIC "-//W3C//DTD SVG 1.1//EN" "http://www.w3.org/Graphics/SVG/1.1/DTD/svg11.dtd">
<svg version="1.1" id="Capa_1" xmlns="http://www.w3.org/2000/svg" xmlns:xlink="http://www.w3.org/1999/xlink" x="0px" y="0px"
	 viewBox="0 0 44 44" enable-background="new 0 0 44 44" xml:space="preserve">
<g>
	<g>
		<g>
			<path fill="#F9A431" d="M23.2,20.7h-2.6c-0.1,0-0.1,0.6-0.1,1.3s0.1,1.3,0.1,1.3h2.6c0.1,0,0.1-0.6,0.1-1.3S23.3,20.7,23.2,20.7z
				"/>
			<path fill="#F9A431" d="M20.7,15.6h2.6c0.1,0,0.1-0.6,0.1-1.3S23.3,13,23.2,13h-2.6c-0.1,0-0.1,0.6-0.1,1.3S20.6,15.6,20.7,15.6z
				"/>
			<path fill="#F9A431" d="M23.2,28.4h-2.6c-0.1,0-0.1,0.6-0.1,1.3s0.1,1.3,0.1,1.3h2.6c0.1,0,0.1-0.6,0.1-1.3S23.3,28.4,23.2,28.4z
				"/>
		</g>
	</g>
</g>
<circle opacity="0.75" fill="none" stroke="#235674" stroke-width="2" stroke-miterlimit="10" enable-background="new    " cx="22" cy="22" r="19.8"/>
</svg>
